<?xml version="1.0" encoding="utf-8"?>
<svg xmlns="http://www.w3.org/2000/svg"
    xmlns:xlink="http://www.w3.org/1999/xlink"
    width="1020" height="1020" viewBox="-10 -10 1020 1020">
<defs>
<style type="text/css"><![CDATA[
line {
    stroke: #000000;
    stroke-linecap: square;
    stroke-width: 4;
}
]]>
.small { font: bold 28.571428571428573px sans-serif;
         fill: lightgray; }}
</style>

</defs>
<rect x="0.0" y="0.0" width="142.85714285714286" height="142.85714285714286" fill="none" stroke="gray" stroke-width="1"/>
<rect x="0.0" y="142.85714285714286" width="142.85714285714286" height="142.85714285714286" fill="none" stroke="gray" stroke-width="1"/>
<rect x="0.0" y="285.7142857142857" width="142.85714285714286" height="142.85714285714286" fill="none" stroke="gray" stroke-width="1"/>
<rect x="0.0" y="428.57142857142856" width="142.85714285714286" height="142.85714285714286" fill="none" stroke="gray" stroke-width="1"/>
<rect x="0.0" y="571.4285714285714" width="142.85714285714286" height="142.85714285714286" fill="none" stroke="gray" stroke-width="1"/>
<rect x="0.0" y="714.2857142857143" width="142.85714285714286" height="142.85714285714286" fill="none" stroke="gray" stroke-width="1"/>
<rect x="0.0" y="857.1428571428571" width="142.85714285714286" height="142.85714285714286" fill="none" stroke="gray" stroke-width="1"/>
<rect x="142.85714285714286" y="0.0" width="142.85714285714286" height="142.85714285714286" fill="none" stroke="gray" stroke-width="1"/>
<rect x="142.85714285714286" y="142.85714285714286" width="142.85714285714286" height="142.85714285714286" fill="none" stroke="gray" stroke-width="1"/>
<rect x="142.85714285714286" y="285.7142857142857" width="142.85714285714286" height="142.85714285714286" fill="none" stroke="gray" stroke-width="1"/>
<rect x="142.85714285714286" y="428.57142857142856" width="142.85714285714286" height="142.85714285714286" fill="none" stroke="gray" stroke-width="1"/>
<rect x="142.85714285714286" y="571.4285714285714" width="142.85714285714286" height="142.85714285714286" fill="none" stroke="gray" stroke-width="1"/>
<rect x="142.85714285714286" y="714.2857142857143" width="142.85714285714286" height="142.85714285714286" fill="none" stroke="gray" stroke-width="1"/>
<rect x="142.85714285714286" y="857.1428571428571" width="142.85714285714286" height="142.85714285714286" fill="none" stroke="gray" stroke-width="1"/>
<rect x="285.7142857142857" y="0.0" width="142.85714285714286" height="142.85714285714286" fill="none" stroke="gray" stroke-width="1"/>
<rect x="285.7142857142857" y="142.85714285714286" width="142.85714285714286" height="142.85714285714286" fill="none" stroke="gray" stroke-width="1"/>
<rect x="285.7142857142857" y="285.7142857142857" width="142.85714285714286" height="142.85714285714286" fill="none" stroke="gray" stroke-width="1"/>
<rect x="285.7142857142857" y="428.57142857142856" width="142.85714285714286" height="142.85714285714286" fill="none" stroke="gray" stroke-width="1"/>
<rect x="285.7142857142857" y="571.4285714285714" width="142.85714285714286" height="142.85714285714286" fill="none" stroke="gray" stroke-width="1"/>
<rect x="285.7142857142857" y="714.2857142857143" width="142.85714285714286" height="142.85714285714286" fill="none" stroke="gray" stroke-width="1"/>
<rect x="285.7142857142857" y="857.1428571428571" width="142.85714285714286" height="142.85714285714286" fill="none" stroke="gray" stroke-width="1"/>
<rect x="428.57142857142856" y="0.0" width="142.85714285714286" height="142.85714285714286" fill="none" stroke="gray" stroke-width="1"/>
<rect x="428.57142857142856" y="142.85714285714286" width="142.85714285714286" height="142.85714285714286" fill="none" stroke="gray" stroke-width="1"/>
<rect x="428.57142857142856" y="285.7142857142857" width="142.85714285714286" height="142.85714285714286" fill="none" stroke="gray" stroke-width="1"/>
<rect x="428.57142857142856" y="428.57142857142856" width="142.85714285714286" height="142.85714285714286" fill="none" stroke="gray" stroke-width="1"/>
<rect x="428.57142857142856" y="571.4285714285714" width="142.85714285714286" height="142.85714285714286" fill="none" stroke="gray" stroke-width="1"/>
<rect x="428.57142857142856" y="714.2857142857143" width="142.85714285714286" height="142.85714285714286" fill="none" stroke="gray" stroke-width="1"/>
<rect x="428.57142857142856" y="857.1428571428571" width="142.85714285714286" height="142.85714285714286" fill="none" stroke="gray" stroke-width="1"/>
<rect x="571.4285714285714" y="0.0" width="142.85714285714286" height="142.85714285714286" fill="none" stroke="gray" stroke-width="1"/>
<rect x="571.4285714285714" y="142.85714285714286" width="142.85714285714286" height="142.85714285714286" fill="none" stroke="gray" stroke-width="1"/>
<rect x="571.4285714285714" y="285.7142857142857" width="142.85714285714286" height="142.85714285714286" fill="none" stroke="gray" stroke-width="1"/>
<rect x="571.4285714285714" y="428.57142857142856" width="142.85714285714286" height="142.85714285714286" fill="none" stroke="gray" stroke-width="1"/>
<rect x="571.4285714285714" y="571.4285714285714" width="142.85714285714286" height="142.85714285714286" fill="none" stroke="gray" stroke-width="1"/>
<rect x="571.4285714285714" y="714.2857142857143" width="142.85714285714286" height="142.85714285714286" fill="none" stroke="gray" stroke-width="1"/>
<rect x="571.4285714285714" y="857.1428571428571" width="142.85714285714286" height="142.85714285714286" fill="none" stroke="gray" stroke-width="1"/>
<rect x="714.2857142857143" y="0.0" width="142.85714285714286" height="142.85714285714286" fill="none" stroke="gray" stroke-width="1"/>
<rect x="714.2857142857143" y="142.85714285714286" width="142.85714285714286" height="142.85714285714286" fill="none" stroke="gray" stroke-width="1"/>
<rect x="714.2857142857143" y="285.7142857142857" width="142.85714285714286" height="142.85714285714286" fill="none" stroke="gray" stroke-width="1"/>
<rect x="714.2857142857143" y="428.57142857142856" width="142.85714285714286" height="142.85714285714286" fill="none" stroke="gray" stroke-width="1"/>
<rect x="714.2857142857143" y="571.4285714285714" width="142.85714285714286" height="142.85714285714286" fill="none" stroke="gray" stroke-width="1"/>
<rect x="714.2857142857143" y="714.2857142857143" width="142.85714285714286" height="142.85714285714286" fill="none" stroke="gray" stroke-width="1"/>
<rect x="714.2857142857143" y="857.1428571428571" width="142.85714285714286" height="142.85714285714286" fill="none" stroke="gray" stroke-width="1"/>
<rect x="857.1428571428571" y="0.0" width="142.85714285714286" height="142.85714285714286" fill="none" stroke="gray" stroke-width="1"/>
<rect x="857.1428571428571" y="142.85714285714286" width="142.85714285714286" height="142.85714285714286" fill="none" stroke="gray" stroke-width="1"/>
<rect x="857.1428571428571" y="285.7142857142857" width="142.85714285714286" height="142.85714285714286" fill="none" stroke="gray" stroke-width="1"/>
<rect x="857.1428571428571" y="428.57142857142856" width="142.85714285714286" height="142.85714285714286" fill="none" stroke="gray" stroke-width="1"/>
<rect x="857.1428571428571" y="571.4285714285714" width="142.85714285714286" height="142.85714285714286" fill="none" stroke="gray" stroke-width="1"/>
<rect x="857.1428571428571" y="714.2857142857143" width="142.85714285714286" height="142.85714285714286" fill="none" stroke="gray" stroke-width="1"/>
<rect x="857.1428571428571" y="857.1428571428571" width="142.85714285714286" height="142.85714285714286" fill="none" stroke="gray" stroke-width="1"/>

<text x="14.285714285714286" y="42.857142857142854" class="small">(0,0)</text>
<text x="14.285714285714286" y="185.71428571428572" class="small">(0,1)</text>
<text x="14.285714285714286" y="328.57142857142856" class="small">(0,2)</text>
<text x="14.285714285714286" y="471.42857142857144" class="small">(0,3)</text>
<text x="14.285714285714286" y="614.2857142857143" class="small">(0,4)</text>
<text x="14.285714285714286" y="757.1428571428571" class="small">(0,5)</text>
<text x="14.285714285714286" y="900.0" class="small">(0,6)</text>
<text x="157.14285714285717" y="42.857142857142854" class="small">(1,0)</text>
<text x="157.14285714285717" y="185.71428571428572" class="small">(1,1)</text>
<text x="157.14285714285717" y="328.57142857142856" class="small">(1,2)</text>
<text x="157.14285714285717" y="471.42857142857144" class="small">(1,3)</text>
<text x="157.14285714285717" y="614.2857142857143" class="small">(1,4)</text>
<text x="157.14285714285717" y="757.1428571428571" class="small">(1,5)</text>
<text x="157.14285714285717" y="900.0" class="small">(1,6)</text>
<text x="300.0" y="42.857142857142854" class="small">(2,0)</text>
<text x="300.0" y="185.71428571428572" class="small">(2,1)</text>
<text x="300.0" y="328.57142857142856" class="small">(2,2)</text>
<text x="300.0" y="471.42857142857144" class="small">(2,3)</text>
<text x="300.0" y="614.2857142857143" class="small">(2,4)</text>
<text x="300.0" y="757.1428571428571" class="small">(2,5)</text>
<text x="300.0" y="900.0" class="small">(2,6)</text>
<text x="442.8571428571429" y="42.857142857142854" class="small">(3,0)</text>
<text x="442.8571428571429" y="185.71428571428572" class="small">(3,1)</text>
<text x="442.8571428571429" y="328.57142857142856" class="small">(3,2)</text>
<text x="442.8571428571429" y="471.42857142857144" class="small">(3,3)</text>
<text x="442.8571428571429" y="614.2857142857143" class="small">(3,4)</text>
<text x="442.8571428571429" y="757.1428571428571" class="small">(3,5)</text>
<text x="442.8571428571429" y="900.0" class="small">(3,6)</text>
<text x="585.7142857142857" y="42.857142857142854" class="small">(4,0)</text>
<text x="585.7142857142857" y="185.71428571428572" class="small">(4,1)</text>
<text x="585.7142857142857" y="328.57142857142856" class="small">(4,2)</text>
<text x="585.7142857142857" y="471.42857142857144" class="small">(4,3)</text>
<text x="585.7142857142857" y="614.2857142857143" class="small">(4,4)</text>
<text x="585.7142857142857" y="757.1428571428571" class="small">(4,5)</text>
<text x="585.7142857142857" y="900.0" class="small">(4,6)</text>
<text x="728.5714285714286" y="42.857142857142854" class="small">(5,0)</text>
<text x="728.5714285714286" y="185.71428571428572" class="small">(5,1)</text>
<text x="728.5714285714286" y="328.57142857142856" class="small">(5,2)</text>
<text x="728.5714285714286" y="471.42857142857144" class="small">(5,3)</text>
<text x="728.5714285714286" y="614.2857142857143" class="small">(5,4)</text>
<text x="728.5714285714286" y="757.1428571428571" class="small">(5,5)</text>
<text x="728.5714285714286" y="900.0" class="small">(5,6)</text>
<text x="871.4285714285714" y="42.857142857142854" class="small">(6,0)</text>
<text x="871.4285714285714" y="185.71428571428572" class="small">(6,1)</text>
<text x="871.4285714285714" y="328.57142857142856" class="small">(6,2)</text>
<text x="871.4285714285714" y="471.42857142857144" class="small">(6,3)</text>
<text x="871.4285714285714" y="614.2857142857143" class="small">(6,4)</text>
<text x="871.4285714285714" y="757.1428571428571" class="small">(6,5)</text>
<text x="871.4285714285714" y="900.0" class="small">(6,6)</text>

<line x1="142.85714285714286" y1="142.85714285714286" x2="142.85714285714286" y2="285.7142857142857"/>
<line x1="142.85714285714286" y1="285.7142857142857" x2="142.85714285714286" y2="428.57142857142856"/>
<line x1="142.85714285714286" y1="571.4285714285714" x2="142.85714285714286" y2="714.2857142857143"/>
<line x1="142.85714285714286" y1="714.2857142857143" x2="142.85714285714286" y2="857.1428571428571"/>
<line x1="0.0" y1="1000.0" x2="142.85714285714286" y2="1000.0"/>
<line x1="142.85714285714286" y1="142.85714285714286" x2="285.7142857142857" y2="142.85714285714286"/>
<line x1="285.7142857142857" y1="0.0" x2="285.7142857142857" y2="142.85714285714286"/>
<line x1="285.7142857142857" y1="285.7142857142857" x2="285.7142857142857" y2="428.57142857142856"/>
<line x1="142.85714285714286" y1="571.4285714285714" x2="285.7142857142857" y2="571.4285714285714"/>
<line x1="285.7142857142857" y1="428.57142857142856" x2="285.7142857142857" y2="571.4285714285714"/>
<line x1="142.85714285714286" y1="857.1428571428571" x2="285.7142857142857" y2="857.1428571428571"/>
<line x1="142.85714285714286" y1="1000.0" x2="285.7142857142857" y2="1000.0"/>
<line x1="285.7142857142857" y1="285.7142857142857" x2="428.57142857142856" y2="285.7142857142857"/>
<line x1="428.57142857142856" y1="142.85714285714286" x2="428.57142857142856" y2="285.7142857142857"/>
<line x1="285.7142857142857" y1="571.4285714285714" x2="428.57142857142856" y2="571.4285714285714"/>
<line x1="285.7142857142857" y1="714.2857142857143" x2="428.57142857142856" y2="714.2857142857143"/>
<line x1="428.57142857142856" y1="714.2857142857143" x2="428.57142857142856" y2="857.1428571428571"/>
<line x1="285.7142857142857" y1="1000.0" x2="428.57142857142856" y2="1000.0"/>
<line x1="428.57142857142856" y1="857.1428571428571" x2="428.57142857142856" y2="1000.0"/>
<line x1="571.4285714285714" y1="142.85714285714286" x2="571.4285714285714" y2="285.7142857142857"/>
<line x1="428.57142857142856" y1="428.57142857142856" x2="571.4285714285714" y2="428.57142857142856"/>
<line x1="571.4285714285714" y1="285.7142857142857" x2="571.4285714285714" y2="428.57142857142856"/>
<line x1="428.57142857142856" y1="571.4285714285714" x2="571.4285714285714" y2="571.4285714285714"/>
<line x1="571.4285714285714" y1="571.4285714285714" x2="571.4285714285714" y2="714.2857142857143"/>
<line x1="428.57142857142856" y1="857.1428571428571" x2="571.4285714285714" y2="857.1428571428571"/>
<line x1="428.57142857142856" y1="1000.0" x2="571.4285714285714" y2="1000.0"/>
<line x1="571.4285714285714" y1="142.85714285714286" x2="714.2857142857143" y2="142.85714285714286"/>
<line x1="714.2857142857143" y1="0.0" x2="714.2857142857143" y2="142.85714285714286"/>
<line x1="714.2857142857143" y1="285.7142857142857" x2="714.2857142857143" y2="428.57142857142856"/>
<line x1="571.4285714285714" y1="571.4285714285714" x2="714.2857142857143" y2="571.4285714285714"/>
<line x1="714.2857142857143" y1="428.57142857142856" x2="714.2857142857143" y2="571.4285714285714"/>
<line x1="571.4285714285714" y1="714.2857142857143" x2="714.2857142857143" y2="714.2857142857143"/>
<line x1="714.2857142857143" y1="714.2857142857143" x2="714.2857142857143" y2="857.1428571428571"/>
<line x1="571.4285714285714" y1="1000.0" x2="714.2857142857143" y2="1000.0"/>
<line x1="714.2857142857143" y1="285.7142857142857" x2="857.1428571428571" y2="285.7142857142857"/>
<line x1="857.1428571428571" y1="142.85714285714286" x2="857.1428571428571" y2="285.7142857142857"/>
<line x1="714.2857142857143" y1="428.57142857142856" x2="857.1428571428571" y2="428.57142857142856"/>
<line x1="857.1428571428571" y1="571.4285714285714" x2="857.1428571428571" y2="714.2857142857143"/>
<line x1="714.2857142857143" y1="857.1428571428571" x2="857.1428571428571" y2="857.1428571428571"/>
<line x1="857.1428571428571" y1="714.2857142857143" x2="857.1428571428571" y2="857.1428571428571"/>
<line x1="714.2857142857143" y1="1000.0" x2="857.1428571428571" y2="1000.0"/>
<line x1="1000.0" y1="0.0" x2="1000.0" y2="142.85714285714286"/>
<line x1="1000.0" y1="142.85714285714286" x2="1000.0" y2="285.7142857142857"/>
<line x1="857.1428571428571" y1="428.57142857142856" x2="1000.0" y2="428.57142857142856"/>
<line x1="1000.0" y1="285.7142857142857" x2="1000.0" y2="428.57142857142856"/>
<line x1="1000.0" y1="428.57142857142856" x2="1000.0" y2="571.4285714285714"/>
<line x1="1000.0" y1="571.4285714285714" x2="1000.0" y2="714.2857142857143"/>
<line x1="1000.0" y1="714.2857142857143" x2="1000.0" y2="857.1428571428571"/>
<line x1="857.1428571428571" y1="1000.0" x2="1000.0" y2="1000.0"/>
<line x1="1000.0" y1="857.1428571428571" x2="1000.0" y2="1000.0"/>

<line x1="0" y1="0" x2="1000" y2="0"/>
<line x1="0" y1="0" x2="0" y2="1000"/>
</svg>
