<?xml version="1.0" encoding="utf-8"?>
<svg xmlns="http://www.w3.org/2000/svg"
    xmlns:xlink="http://www.w3.org/1999/xlink"
    width="1020" height="1020" viewBox="-10 -10 1020 1020">
<defs>
<style type="text/css"><![CDATA[
line {
    stroke: #000000;
    stroke-linecap: square;
    stroke-width: 4;
}
]]>
.small { font: bold 33.33333333333333px sans-serif;
         fill: lightgray; }}
</style>

</defs>
<rect x="0.0" y="0.0" width="166.66666666666666" height="166.66666666666666" fill="none" stroke="gray" stroke-width="1"/>
<rect x="0.0" y="166.66666666666666" width="166.66666666666666" height="166.66666666666666" fill="none" stroke="gray" stroke-width="1"/>
<rect x="0.0" y="333.3333333333333" width="166.66666666666666" height="166.66666666666666" fill="none" stroke="gray" stroke-width="1"/>
<rect x="0.0" y="500.0" width="166.66666666666666" height="166.66666666666666" fill="none" stroke="gray" stroke-width="1"/>
<rect x="0.0" y="666.6666666666666" width="166.66666666666666" height="166.66666666666666" fill="none" stroke="gray" stroke-width="1"/>
<rect x="0.0" y="833.3333333333333" width="166.66666666666666" height="166.66666666666666" fill="none" stroke="gray" stroke-width="1"/>
<rect x="166.66666666666666" y="0.0" width="166.66666666666666" height="166.66666666666666" fill="none" stroke="gray" stroke-width="1"/>
<rect x="166.66666666666666" y="166.66666666666666" width="166.66666666666666" height="166.66666666666666" fill="none" stroke="gray" stroke-width="1"/>
<rect x="166.66666666666666" y="333.3333333333333" width="166.66666666666666" height="166.66666666666666" fill="none" stroke="gray" stroke-width="1"/>
<rect x="166.66666666666666" y="500.0" width="166.66666666666666" height="166.66666666666666" fill="none" stroke="gray" stroke-width="1"/>
<rect x="166.66666666666666" y="666.6666666666666" width="166.66666666666666" height="166.66666666666666" fill="none" stroke="gray" stroke-width="1"/>
<rect x="166.66666666666666" y="833.3333333333333" width="166.66666666666666" height="166.66666666666666" fill="none" stroke="gray" stroke-width="1"/>
<rect x="333.3333333333333" y="0.0" width="166.66666666666666" height="166.66666666666666" fill="none" stroke="gray" stroke-width="1"/>
<rect x="333.3333333333333" y="166.66666666666666" width="166.66666666666666" height="166.66666666666666" fill="none" stroke="gray" stroke-width="1"/>
<rect x="333.3333333333333" y="333.3333333333333" width="166.66666666666666" height="166.66666666666666" fill="none" stroke="gray" stroke-width="1"/>
<rect x="333.3333333333333" y="500.0" width="166.66666666666666" height="166.66666666666666" fill="none" stroke="gray" stroke-width="1"/>
<rect x="333.3333333333333" y="666.6666666666666" width="166.66666666666666" height="166.66666666666666" fill="none" stroke="gray" stroke-width="1"/>
<rect x="333.3333333333333" y="833.3333333333333" width="166.66666666666666" height="166.66666666666666" fill="none" stroke="gray" stroke-width="1"/>
<rect x="500.0" y="0.0" width="166.66666666666666" height="166.66666666666666" fill="none" stroke="gray" stroke-width="1"/>
<rect x="500.0" y="166.66666666666666" width="166.66666666666666" height="166.66666666666666" fill="none" stroke="gray" stroke-width="1"/>
<rect x="500.0" y="333.3333333333333" width="166.66666666666666" height="166.66666666666666" fill="none" stroke="gray" stroke-width="1"/>
<rect x="500.0" y="500.0" width="166.66666666666666" height="166.66666666666666" fill="none" stroke="gray" stroke-width="1"/>
<rect x="500.0" y="666.6666666666666" width="166.66666666666666" height="166.66666666666666" fill="none" stroke="gray" stroke-width="1"/>
<rect x="500.0" y="833.3333333333333" width="166.66666666666666" height="166.66666666666666" fill="none" stroke="gray" stroke-width="1"/>
<rect x="666.6666666666666" y="0.0" width="166.66666666666666" height="166.66666666666666" fill="none" stroke="gray" stroke-width="1"/>
<rect x="666.6666666666666" y="166.66666666666666" width="166.66666666666666" height="166.66666666666666" fill="none" stroke="gray" stroke-width="1"/>
<rect x="666.6666666666666" y="333.3333333333333" width="166.66666666666666" height="166.66666666666666" fill="none" stroke="gray" stroke-width="1"/>
<rect x="666.6666666666666" y="500.0" width="166.66666666666666" height="166.66666666666666" fill="none" stroke="gray" stroke-width="1"/>
<rect x="666.6666666666666" y="666.6666666666666" width="166.66666666666666" height="166.66666666666666" fill="none" stroke="gray" stroke-width="1"/>
<rect x="666.6666666666666" y="833.3333333333333" width="166.66666666666666" height="166.66666666666666" fill="none" stroke="gray" stroke-width="1"/>
<rect x="833.3333333333333" y="0.0" width="166.66666666666666" height="166.66666666666666" fill="none" stroke="gray" stroke-width="1"/>
<rect x="833.3333333333333" y="166.66666666666666" width="166.66666666666666" height="166.66666666666666" fill="none" stroke="gray" stroke-width="1"/>
<rect x="833.3333333333333" y="333.3333333333333" width="166.66666666666666" height="166.66666666666666" fill="none" stroke="gray" stroke-width="1"/>
<rect x="833.3333333333333" y="500.0" width="166.66666666666666" height="166.66666666666666" fill="none" stroke="gray" stroke-width="1"/>
<rect x="833.3333333333333" y="666.6666666666666" width="166.66666666666666" height="166.66666666666666" fill="none" stroke="gray" stroke-width="1"/>
<rect x="833.3333333333333" y="833.3333333333333" width="166.66666666666666" height="166.66666666666666" fill="none" stroke="gray" stroke-width="1"/>

<text x="16.666666666666668" y="49.99999999999999" class="small">S0</text>
<text x="16.666666666666668" y="216.66666666666666" class="small">S6</text>
<text x="16.666666666666668" y="383.33333333333326" class="small">S12</text>
<text x="16.666666666666668" y="549.9999999999999" class="small">S18</text>
<text x="16.666666666666668" y="716.6666666666666" class="small">S24</text>
<text x="16.666666666666668" y="883.3333333333333" class="small">S30</text>
<text x="183.33333333333334" y="49.99999999999999" class="small">S1</text>
<text x="183.33333333333334" y="216.66666666666666" class="small">S7</text>
<text x="183.33333333333334" y="383.33333333333326" class="small">S13</text>
<text x="183.33333333333334" y="549.9999999999999" class="small">S19</text>
<text x="183.33333333333334" y="716.6666666666666" class="small">S25</text>
<text x="183.33333333333334" y="883.3333333333333" class="small">S31</text>
<text x="350.0" y="49.99999999999999" class="small">S2</text>
<text x="350.0" y="216.66666666666666" class="small">S8</text>
<text x="350.0" y="383.33333333333326" class="small">S14</text>
<text x="350.0" y="549.9999999999999" class="small">S20</text>
<text x="350.0" y="716.6666666666666" class="small">S26</text>
<text x="350.0" y="883.3333333333333" class="small">S32</text>
<text x="516.6666666666666" y="49.99999999999999" class="small">S3</text>
<text x="516.6666666666666" y="216.66666666666666" class="small">S9</text>
<text x="516.6666666666666" y="383.33333333333326" class="small">S15</text>
<text x="516.6666666666666" y="549.9999999999999" class="small">S21</text>
<text x="516.6666666666666" y="716.6666666666666" class="small">S27</text>
<text x="516.6666666666666" y="883.3333333333333" class="small">S33</text>
<text x="683.3333333333333" y="49.99999999999999" class="small">S4</text>
<text x="683.3333333333333" y="216.66666666666666" class="small">S10</text>
<text x="683.3333333333333" y="383.33333333333326" class="small">S16</text>
<text x="683.3333333333333" y="549.9999999999999" class="small">S22</text>
<text x="683.3333333333333" y="716.6666666666666" class="small">S28</text>
<text x="683.3333333333333" y="883.3333333333333" class="small">S34</text>
<text x="849.9999999999999" y="49.99999999999999" class="small">S5</text>
<text x="849.9999999999999" y="216.66666666666666" class="small">S11</text>
<text x="849.9999999999999" y="383.33333333333326" class="small">S17</text>
<text x="849.9999999999999" y="549.9999999999999" class="small">S23</text>
<text x="849.9999999999999" y="716.6666666666666" class="small">S29</text>
<text x="849.9999999999999" y="883.3333333333333" class="small">S35</text>

<line x1="166.66666666666666" y1="0.0" x2="166.66666666666666" y2="166.66666666666666"/>
<line x1="166.66666666666666" y1="333.3333333333333" x2="166.66666666666666" y2="500.0"/>
<line x1="0.0" y1="666.6666666666666" x2="166.66666666666666" y2="666.6666666666666"/>
<line x1="0.0" y1="833.3333333333333" x2="166.66666666666666" y2="833.3333333333333"/>
<line x1="0.0" y1="1000.0" x2="166.66666666666666" y2="1000.0"/>
<line x1="166.66666666666666" y1="333.3333333333333" x2="333.3333333333333" y2="333.3333333333333"/>
<line x1="333.3333333333333" y1="166.66666666666666" x2="333.3333333333333" y2="333.3333333333333"/>
<line x1="166.66666666666666" y1="666.6666666666666" x2="333.3333333333333" y2="666.6666666666666"/>
<line x1="333.3333333333333" y1="500.0" x2="333.3333333333333" y2="666.6666666666666"/>
<line x1="333.3333333333333" y1="666.6666666666666" x2="333.3333333333333" y2="833.3333333333333"/>
<line x1="166.66666666666666" y1="1000.0" x2="333.3333333333333" y2="1000.0"/>
<line x1="500.0" y1="0.0" x2="500.0" y2="166.66666666666666"/>
<line x1="333.3333333333333" y1="333.3333333333333" x2="500.0" y2="333.3333333333333"/>
<line x1="500.0" y1="333.3333333333333" x2="500.0" y2="500.0"/>
<line x1="500.0" y1="500.0" x2="500.0" y2="666.6666666666666"/>
<line x1="333.3333333333333" y1="833.3333333333333" x2="500.0" y2="833.3333333333333"/>
<line x1="500.0" y1="666.6666666666666" x2="500.0" y2="833.3333333333333"/>
<line x1="333.3333333333333" y1="1000.0" x2="500.0" y2="1000.0"/>
<line x1="500.0" y1="333.3333333333333" x2="666.6666666666666" y2="333.3333333333333"/>
<line x1="666.6666666666666" y1="166.66666666666666" x2="666.6666666666666" y2="333.3333333333333"/>
<line x1="500.0" y1="666.6666666666666" x2="666.6666666666666" y2="666.6666666666666"/>
<line x1="500.0" y1="1000.0" x2="666.6666666666666" y2="1000.0"/>
<line x1="666.6666666666666" y1="833.3333333333333" x2="666.6666666666666" y2="1000.0"/>
<line x1="666.6666666666666" y1="333.3333333333333" x2="833.3333333333333" y2="333.3333333333333"/>
<line x1="666.6666666666666" y1="500.0" x2="833.3333333333333" y2="500.0"/>
<line x1="666.6666666666666" y1="666.6666666666666" x2="833.3333333333333" y2="666.6666666666666"/>
<line x1="666.6666666666666" y1="833.3333333333333" x2="833.3333333333333" y2="833.3333333333333"/>
<line x1="666.6666666666666" y1="1000.0" x2="833.3333333333333" y2="1000.0"/>
<line x1="833.3333333333333" y1="166.66666666666666" x2="1000.0" y2="166.66666666666666"/>
<line x1="1000.0" y1="0.0" x2="1000.0" y2="166.66666666666666"/>
<line x1="1000.0" y1="166.66666666666666" x2="1000.0" y2="333.3333333333333"/>
<line x1="833.3333333333333" y1="500.0" x2="1000.0" y2="500.0"/>
<line x1="1000.0" y1="333.3333333333333" x2="1000.0" y2="500.0"/>
<line x1="1000.0" y1="500.0" x2="1000.0" y2="666.6666666666666"/>
<line x1="1000.0" y1="666.6666666666666" x2="1000.0" y2="833.3333333333333"/>
<line x1="833.3333333333333" y1="1000.0" x2="1000.0" y2="1000.0"/>
<line x1="1000.0" y1="833.3333333333333" x2="1000.0" y2="1000.0"/>

<line x1="0" y1="0" x2="1000" y2="0"/>
<line x1="0" y1="0" x2="0" y2="1000"/>
</svg>
