<?xml version="1.0" encoding="utf-8"?>
<svg xmlns="http://www.w3.org/2000/svg"
    xmlns:xlink="http://www.w3.org/1999/xlink"
    width="1020" height="1020" viewBox="-10 -10 1020 1020">
<defs>
<style type="text/css"><![CDATA[
line {
    stroke: #000000;
    stroke-linecap: square;
    stroke-width: 4;
}
]]>
.small { font: bold 20.0px sans-serif;
         fill: lightgray; }}
</style>

</defs>
<rect x="0.0" y="0.0" width="100.0" height="100.0" fill="none" stroke="gray" stroke-width="1"/>
<rect x="0.0" y="100.0" width="100.0" height="100.0" fill="none" stroke="gray" stroke-width="1"/>
<rect x="0.0" y="200.0" width="100.0" height="100.0" fill="none" stroke="gray" stroke-width="1"/>
<rect x="0.0" y="300.0" width="100.0" height="100.0" fill="none" stroke="gray" stroke-width="1"/>
<rect x="0.0" y="400.0" width="100.0" height="100.0" fill="none" stroke="gray" stroke-width="1"/>
<rect x="0.0" y="500.0" width="100.0" height="100.0" fill="none" stroke="gray" stroke-width="1"/>
<rect x="0.0" y="600.0" width="100.0" height="100.0" fill="none" stroke="gray" stroke-width="1"/>
<rect x="0.0" y="700.0" width="100.0" height="100.0" fill="none" stroke="gray" stroke-width="1"/>
<rect x="0.0" y="800.0" width="100.0" height="100.0" fill="none" stroke="gray" stroke-width="1"/>
<rect x="0.0" y="900.0" width="100.0" height="100.0" fill="none" stroke="gray" stroke-width="1"/>
<rect x="100.0" y="0.0" width="100.0" height="100.0" fill="none" stroke="gray" stroke-width="1"/>
<rect x="100.0" y="100.0" width="100.0" height="100.0" fill="none" stroke="gray" stroke-width="1"/>
<rect x="100.0" y="200.0" width="100.0" height="100.0" fill="none" stroke="gray" stroke-width="1"/>
<rect x="100.0" y="300.0" width="100.0" height="100.0" fill="none" stroke="gray" stroke-width="1"/>
<rect x="100.0" y="400.0" width="100.0" height="100.0" fill="none" stroke="gray" stroke-width="1"/>
<rect x="100.0" y="500.0" width="100.0" height="100.0" fill="none" stroke="gray" stroke-width="1"/>
<rect x="100.0" y="600.0" width="100.0" height="100.0" fill="none" stroke="gray" stroke-width="1"/>
<rect x="100.0" y="700.0" width="100.0" height="100.0" fill="none" stroke="gray" stroke-width="1"/>
<rect x="100.0" y="800.0" width="100.0" height="100.0" fill="none" stroke="gray" stroke-width="1"/>
<rect x="100.0" y="900.0" width="100.0" height="100.0" fill="none" stroke="gray" stroke-width="1"/>
<rect x="200.0" y="0.0" width="100.0" height="100.0" fill="none" stroke="gray" stroke-width="1"/>
<rect x="200.0" y="100.0" width="100.0" height="100.0" fill="none" stroke="gray" stroke-width="1"/>
<rect x="200.0" y="200.0" width="100.0" height="100.0" fill="none" stroke="gray" stroke-width="1"/>
<rect x="200.0" y="300.0" width="100.0" height="100.0" fill="none" stroke="gray" stroke-width="1"/>
<rect x="200.0" y="400.0" width="100.0" height="100.0" fill="none" stroke="gray" stroke-width="1"/>
<rect x="200.0" y="500.0" width="100.0" height="100.0" fill="none" stroke="gray" stroke-width="1"/>
<rect x="200.0" y="600.0" width="100.0" height="100.0" fill="none" stroke="gray" stroke-width="1"/>
<rect x="200.0" y="700.0" width="100.0" height="100.0" fill="none" stroke="gray" stroke-width="1"/>
<rect x="200.0" y="800.0" width="100.0" height="100.0" fill="none" stroke="gray" stroke-width="1"/>
<rect x="200.0" y="900.0" width="100.0" height="100.0" fill="none" stroke="gray" stroke-width="1"/>
<rect x="300.0" y="0.0" width="100.0" height="100.0" fill="none" stroke="gray" stroke-width="1"/>
<rect x="300.0" y="100.0" width="100.0" height="100.0" fill="none" stroke="gray" stroke-width="1"/>
<rect x="300.0" y="200.0" width="100.0" height="100.0" fill="none" stroke="gray" stroke-width="1"/>
<rect x="300.0" y="300.0" width="100.0" height="100.0" fill="none" stroke="gray" stroke-width="1"/>
<rect x="300.0" y="400.0" width="100.0" height="100.0" fill="none" stroke="gray" stroke-width="1"/>
<rect x="300.0" y="500.0" width="100.0" height="100.0" fill="none" stroke="gray" stroke-width="1"/>
<rect x="300.0" y="600.0" width="100.0" height="100.0" fill="none" stroke="gray" stroke-width="1"/>
<rect x="300.0" y="700.0" width="100.0" height="100.0" fill="none" stroke="gray" stroke-width="1"/>
<rect x="300.0" y="800.0" width="100.0" height="100.0" fill="none" stroke="gray" stroke-width="1"/>
<rect x="300.0" y="900.0" width="100.0" height="100.0" fill="none" stroke="gray" stroke-width="1"/>
<rect x="400.0" y="0.0" width="100.0" height="100.0" fill="none" stroke="gray" stroke-width="1"/>
<rect x="400.0" y="100.0" width="100.0" height="100.0" fill="none" stroke="gray" stroke-width="1"/>
<rect x="400.0" y="200.0" width="100.0" height="100.0" fill="none" stroke="gray" stroke-width="1"/>
<rect x="400.0" y="300.0" width="100.0" height="100.0" fill="none" stroke="gray" stroke-width="1"/>
<rect x="400.0" y="400.0" width="100.0" height="100.0" fill="none" stroke="gray" stroke-width="1"/>
<rect x="400.0" y="500.0" width="100.0" height="100.0" fill="none" stroke="gray" stroke-width="1"/>
<rect x="400.0" y="600.0" width="100.0" height="100.0" fill="none" stroke="gray" stroke-width="1"/>
<rect x="400.0" y="700.0" width="100.0" height="100.0" fill="none" stroke="gray" stroke-width="1"/>
<rect x="400.0" y="800.0" width="100.0" height="100.0" fill="none" stroke="gray" stroke-width="1"/>
<rect x="400.0" y="900.0" width="100.0" height="100.0" fill="none" stroke="gray" stroke-width="1"/>
<rect x="500.0" y="0.0" width="100.0" height="100.0" fill="none" stroke="gray" stroke-width="1"/>
<rect x="500.0" y="100.0" width="100.0" height="100.0" fill="none" stroke="gray" stroke-width="1"/>
<rect x="500.0" y="200.0" width="100.0" height="100.0" fill="none" stroke="gray" stroke-width="1"/>
<rect x="500.0" y="300.0" width="100.0" height="100.0" fill="none" stroke="gray" stroke-width="1"/>
<rect x="500.0" y="400.0" width="100.0" height="100.0" fill="none" stroke="gray" stroke-width="1"/>
<rect x="500.0" y="500.0" width="100.0" height="100.0" fill="none" stroke="gray" stroke-width="1"/>
<rect x="500.0" y="600.0" width="100.0" height="100.0" fill="none" stroke="gray" stroke-width="1"/>
<rect x="500.0" y="700.0" width="100.0" height="100.0" fill="none" stroke="gray" stroke-width="1"/>
<rect x="500.0" y="800.0" width="100.0" height="100.0" fill="none" stroke="gray" stroke-width="1"/>
<rect x="500.0" y="900.0" width="100.0" height="100.0" fill="none" stroke="gray" stroke-width="1"/>
<rect x="600.0" y="0.0" width="100.0" height="100.0" fill="none" stroke="gray" stroke-width="1"/>
<rect x="600.0" y="100.0" width="100.0" height="100.0" fill="none" stroke="gray" stroke-width="1"/>
<rect x="600.0" y="200.0" width="100.0" height="100.0" fill="none" stroke="gray" stroke-width="1"/>
<rect x="600.0" y="300.0" width="100.0" height="100.0" fill="none" stroke="gray" stroke-width="1"/>
<rect x="600.0" y="400.0" width="100.0" height="100.0" fill="none" stroke="gray" stroke-width="1"/>
<rect x="600.0" y="500.0" width="100.0" height="100.0" fill="none" stroke="gray" stroke-width="1"/>
<rect x="600.0" y="600.0" width="100.0" height="100.0" fill="none" stroke="gray" stroke-width="1"/>
<rect x="600.0" y="700.0" width="100.0" height="100.0" fill="none" stroke="gray" stroke-width="1"/>
<rect x="600.0" y="800.0" width="100.0" height="100.0" fill="none" stroke="gray" stroke-width="1"/>
<rect x="600.0" y="900.0" width="100.0" height="100.0" fill="none" stroke="gray" stroke-width="1"/>
<rect x="700.0" y="0.0" width="100.0" height="100.0" fill="none" stroke="gray" stroke-width="1"/>
<rect x="700.0" y="100.0" width="100.0" height="100.0" fill="none" stroke="gray" stroke-width="1"/>
<rect x="700.0" y="200.0" width="100.0" height="100.0" fill="none" stroke="gray" stroke-width="1"/>
<rect x="700.0" y="300.0" width="100.0" height="100.0" fill="none" stroke="gray" stroke-width="1"/>
<rect x="700.0" y="400.0" width="100.0" height="100.0" fill="none" stroke="gray" stroke-width="1"/>
<rect x="700.0" y="500.0" width="100.0" height="100.0" fill="none" stroke="gray" stroke-width="1"/>
<rect x="700.0" y="600.0" width="100.0" height="100.0" fill="none" stroke="gray" stroke-width="1"/>
<rect x="700.0" y="700.0" width="100.0" height="100.0" fill="none" stroke="gray" stroke-width="1"/>
<rect x="700.0" y="800.0" width="100.0" height="100.0" fill="none" stroke="gray" stroke-width="1"/>
<rect x="700.0" y="900.0" width="100.0" height="100.0" fill="none" stroke="gray" stroke-width="1"/>
<rect x="800.0" y="0.0" width="100.0" height="100.0" fill="none" stroke="gray" stroke-width="1"/>
<rect x="800.0" y="100.0" width="100.0" height="100.0" fill="none" stroke="gray" stroke-width="1"/>
<rect x="800.0" y="200.0" width="100.0" height="100.0" fill="none" stroke="gray" stroke-width="1"/>
<rect x="800.0" y="300.0" width="100.0" height="100.0" fill="none" stroke="gray" stroke-width="1"/>
<rect x="800.0" y="400.0" width="100.0" height="100.0" fill="none" stroke="gray" stroke-width="1"/>
<rect x="800.0" y="500.0" width="100.0" height="100.0" fill="none" stroke="gray" stroke-width="1"/>
<rect x="800.0" y="600.0" width="100.0" height="100.0" fill="none" stroke="gray" stroke-width="1"/>
<rect x="800.0" y="700.0" width="100.0" height="100.0" fill="none" stroke="gray" stroke-width="1"/>
<rect x="800.0" y="800.0" width="100.0" height="100.0" fill="none" stroke="gray" stroke-width="1"/>
<rect x="800.0" y="900.0" width="100.0" height="100.0" fill="none" stroke="gray" stroke-width="1"/>
<rect x="900.0" y="0.0" width="100.0" height="100.0" fill="none" stroke="gray" stroke-width="1"/>
<rect x="900.0" y="100.0" width="100.0" height="100.0" fill="none" stroke="gray" stroke-width="1"/>
<rect x="900.0" y="200.0" width="100.0" height="100.0" fill="none" stroke="gray" stroke-width="1"/>
<rect x="900.0" y="300.0" width="100.0" height="100.0" fill="none" stroke="gray" stroke-width="1"/>
<rect x="900.0" y="400.0" width="100.0" height="100.0" fill="none" stroke="gray" stroke-width="1"/>
<rect x="900.0" y="500.0" width="100.0" height="100.0" fill="none" stroke="gray" stroke-width="1"/>
<rect x="900.0" y="600.0" width="100.0" height="100.0" fill="none" stroke="gray" stroke-width="1"/>
<rect x="900.0" y="700.0" width="100.0" height="100.0" fill="none" stroke="gray" stroke-width="1"/>
<rect x="900.0" y="800.0" width="100.0" height="100.0" fill="none" stroke="gray" stroke-width="1"/>
<rect x="900.0" y="900.0" width="100.0" height="100.0" fill="none" stroke="gray" stroke-width="1"/>

<text x="10.0" y="30.0" class="small">(0,0)</text>
<text x="10.0" y="130.0" class="small">(0,1)</text>
<text x="10.0" y="229.99999999999997" class="small">(0,2)</text>
<text x="10.0" y="330.0" class="small">(0,3)</text>
<text x="10.0" y="430.0" class="small">(0,4)</text>
<text x="10.0" y="530.0" class="small">(0,5)</text>
<text x="10.0" y="630.0" class="small">(0,6)</text>
<text x="10.0" y="730.0" class="small">(0,7)</text>
<text x="10.0" y="830.0000000000001" class="small">(0,8)</text>
<text x="10.0" y="930.0000000000001" class="small">(0,9)</text>
<text x="110.00000000000001" y="30.0" class="small">(1,0)</text>
<text x="110.00000000000001" y="130.0" class="small">(1,1)</text>
<text x="110.00000000000001" y="229.99999999999997" class="small">(1,2)</text>
<text x="110.00000000000001" y="330.0" class="small">(1,3)</text>
<text x="110.00000000000001" y="430.0" class="small">(1,4)</text>
<text x="110.00000000000001" y="530.0" class="small">(1,5)</text>
<text x="110.00000000000001" y="630.0" class="small">(1,6)</text>
<text x="110.00000000000001" y="730.0" class="small">(1,7)</text>
<text x="110.00000000000001" y="830.0000000000001" class="small">(1,8)</text>
<text x="110.00000000000001" y="930.0000000000001" class="small">(1,9)</text>
<text x="210.0" y="30.0" class="small">(2,0)</text>
<text x="210.0" y="130.0" class="small">(2,1)</text>
<text x="210.0" y="229.99999999999997" class="small">(2,2)</text>
<text x="210.0" y="330.0" class="small">(2,3)</text>
<text x="210.0" y="430.0" class="small">(2,4)</text>
<text x="210.0" y="530.0" class="small">(2,5)</text>
<text x="210.0" y="630.0" class="small">(2,6)</text>
<text x="210.0" y="730.0" class="small">(2,7)</text>
<text x="210.0" y="830.0000000000001" class="small">(2,8)</text>
<text x="210.0" y="930.0000000000001" class="small">(2,9)</text>
<text x="310.0" y="30.0" class="small">(3,0)</text>
<text x="310.0" y="130.0" class="small">(3,1)</text>
<text x="310.0" y="229.99999999999997" class="small">(3,2)</text>
<text x="310.0" y="330.0" class="small">(3,3)</text>
<text x="310.0" y="430.0" class="small">(3,4)</text>
<text x="310.0" y="530.0" class="small">(3,5)</text>
<text x="310.0" y="630.0" class="small">(3,6)</text>
<text x="310.0" y="730.0" class="small">(3,7)</text>
<text x="310.0" y="830.0000000000001" class="small">(3,8)</text>
<text x="310.0" y="930.0000000000001" class="small">(3,9)</text>
<text x="409.99999999999994" y="30.0" class="small">(4,0)</text>
<text x="409.99999999999994" y="130.0" class="small">(4,1)</text>
<text x="409.99999999999994" y="229.99999999999997" class="small">(4,2)</text>
<text x="409.99999999999994" y="330.0" class="small">(4,3)</text>
<text x="409.99999999999994" y="430.0" class="small">(4,4)</text>
<text x="409.99999999999994" y="530.0" class="small">(4,5)</text>
<text x="409.99999999999994" y="630.0" class="small">(4,6)</text>
<text x="409.99999999999994" y="730.0" class="small">(4,7)</text>
<text x="409.99999999999994" y="830.0000000000001" class="small">(4,8)</text>
<text x="409.99999999999994" y="930.0000000000001" class="small">(4,9)</text>
<text x="509.99999999999994" y="30.0" class="small">(5,0)</text>
<text x="509.99999999999994" y="130.0" class="small">(5,1)</text>
<text x="509.99999999999994" y="229.99999999999997" class="small">(5,2)</text>
<text x="509.99999999999994" y="330.0" class="small">(5,3)</text>
<text x="509.99999999999994" y="430.0" class="small">(5,4)</text>
<text x="509.99999999999994" y="530.0" class="small">(5,5)</text>
<text x="509.99999999999994" y="630.0" class="small">(5,6)</text>
<text x="509.99999999999994" y="730.0" class="small">(5,7)</text>
<text x="509.99999999999994" y="830.0000000000001" class="small">(5,8)</text>
<text x="509.99999999999994" y="930.0000000000001" class="small">(5,9)</text>
<text x="610.0" y="30.0" class="small">(6,0)</text>
<text x="610.0" y="130.0" class="small">(6,1)</text>
<text x="610.0" y="229.99999999999997" class="small">(6,2)</text>
<text x="610.0" y="330.0" class="small">(6,3)</text>
<text x="610.0" y="430.0" class="small">(6,4)</text>
<text x="610.0" y="530.0" class="small">(6,5)</text>
<text x="610.0" y="630.0" class="small">(6,6)</text>
<text x="610.0" y="730.0" class="small">(6,7)</text>
<text x="610.0" y="830.0000000000001" class="small">(6,8)</text>
<text x="610.0" y="930.0000000000001" class="small">(6,9)</text>
<text x="710.0" y="30.0" class="small">(7,0)</text>
<text x="710.0" y="130.0" class="small">(7,1)</text>
<text x="710.0" y="229.99999999999997" class="small">(7,2)</text>
<text x="710.0" y="330.0" class="small">(7,3)</text>
<text x="710.0" y="430.0" class="small">(7,4)</text>
<text x="710.0" y="530.0" class="small">(7,5)</text>
<text x="710.0" y="630.0" class="small">(7,6)</text>
<text x="710.0" y="730.0" class="small">(7,7)</text>
<text x="710.0" y="830.0000000000001" class="small">(7,8)</text>
<text x="710.0" y="930.0000000000001" class="small">(7,9)</text>
<text x="810.0" y="30.0" class="small">(8,0)</text>
<text x="810.0" y="130.0" class="small">(8,1)</text>
<text x="810.0" y="229.99999999999997" class="small">(8,2)</text>
<text x="810.0" y="330.0" class="small">(8,3)</text>
<text x="810.0" y="430.0" class="small">(8,4)</text>
<text x="810.0" y="530.0" class="small">(8,5)</text>
<text x="810.0" y="630.0" class="small">(8,6)</text>
<text x="810.0" y="730.0" class="small">(8,7)</text>
<text x="810.0" y="830.0000000000001" class="small">(8,8)</text>
<text x="810.0" y="930.0000000000001" class="small">(8,9)</text>
<text x="910.0" y="30.0" class="small">(9,0)</text>
<text x="910.0" y="130.0" class="small">(9,1)</text>
<text x="910.0" y="229.99999999999997" class="small">(9,2)</text>
<text x="910.0" y="330.0" class="small">(9,3)</text>
<text x="910.0" y="430.0" class="small">(9,4)</text>
<text x="910.0" y="530.0" class="small">(9,5)</text>
<text x="910.0" y="630.0" class="small">(9,6)</text>
<text x="910.0" y="730.0" class="small">(9,7)</text>
<text x="910.0" y="830.0000000000001" class="small">(9,8)</text>
<text x="910.0" y="930.0000000000001" class="small">(9,9)</text>

<line x1="0.0" y1="200.0" x2="100.0" y2="200.0"/>
<line x1="100.0" y1="200.0" x2="100.0" y2="300.0"/>
<line x1="100.0" y1="400.0" x2="100.0" y2="500.0"/>
<line x1="0.0" y1="700.0" x2="100.0" y2="700.0"/>
<line x1="0.0" y1="900.0" x2="100.0" y2="900.0"/>
<line x1="0.0" y1="1000.0" x2="100.0" y2="1000.0"/>
<line x1="100.0" y1="100.0" x2="200.0" y2="100.0"/>
<line x1="200.0" y1="100.0" x2="200.0" y2="200.0"/>
<line x1="100.0" y1="300.0" x2="200.0" y2="300.0"/>
<line x1="100.0" y1="400.0" x2="200.0" y2="400.0"/>
<line x1="200.0" y1="300.0" x2="200.0" y2="400.0"/>
<line x1="100.0" y1="600.0" x2="200.0" y2="600.0"/>
<line x1="200.0" y1="500.0" x2="200.0" y2="600.0"/>
<line x1="100.0" y1="700.0" x2="200.0" y2="700.0"/>
<line x1="100.0" y1="800.0" x2="200.0" y2="800.0"/>
<line x1="100.0" y1="900.0" x2="200.0" y2="900.0"/>
<line x1="100.0" y1="1000.0" x2="200.0" y2="1000.0"/>
<line x1="200.0" y1="100.0" x2="300.0" y2="100.0"/>
<line x1="300.0" y1="100.0" x2="300.0" y2="200.0"/>
<line x1="300.0" y1="200.0" x2="300.0" y2="300.0"/>
<line x1="200.0" y1="400.0" x2="300.0" y2="400.0"/>
<line x1="200.0" y1="500.0" x2="300.0" y2="500.0"/>
<line x1="200.0" y1="600.0" x2="300.0" y2="600.0"/>
<line x1="300.0" y1="600.0" x2="300.0" y2="700.0"/>
<line x1="200.0" y1="800.0" x2="300.0" y2="800.0"/>
<line x1="300.0" y1="700.0" x2="300.0" y2="800.0"/>
<line x1="300.0" y1="800.0" x2="300.0" y2="900.0"/>
<line x1="200.0" y1="1000.0" x2="300.0" y2="1000.0"/>
<line x1="300.0" y1="200.0" x2="400.0" y2="200.0"/>
<line x1="300.0" y1="300.0" x2="400.0" y2="300.0"/>
<line x1="300.0" y1="400.0" x2="400.0" y2="400.0"/>
<line x1="300.0" y1="500.0" x2="400.0" y2="500.0"/>
<line x1="300.0" y1="600.0" x2="400.0" y2="600.0"/>
<line x1="400.0" y1="700.0" x2="400.0" y2="800.0"/>
<line x1="400.0" y1="800.0" x2="400.0" y2="900.0"/>
<line x1="300.0" y1="1000.0" x2="400.0" y2="1000.0"/>
<line x1="400.0" y1="900.0" x2="400.0" y2="1000.0"/>
<line x1="400.0" y1="100.0" x2="500.0" y2="100.0"/>
<line x1="400.0" y1="200.0" x2="500.0" y2="200.0"/>
<line x1="500.0" y1="200.0" x2="500.0" y2="300.0"/>
<line x1="500.0" y1="300.0" x2="500.0" y2="400.0"/>
<line x1="400.0" y1="500.0" x2="500.0" y2="500.0"/>
<line x1="500.0" y1="400.0" x2="500.0" y2="500.0"/>
<line x1="400.0" y1="600.0" x2="500.0" y2="600.0"/>
<line x1="500.0" y1="600.0" x2="500.0" y2="700.0"/>
<line x1="500.0" y1="700.0" x2="500.0" y2="800.0"/>
<line x1="400.0" y1="900.0" x2="500.0" y2="900.0"/>
<line x1="400.0" y1="1000.0" x2="500.0" y2="1000.0"/>
<line x1="500.0" y1="100.0" x2="600.0" y2="100.0"/>
<line x1="600.0" y1="100.0" x2="600.0" y2="200.0"/>
<line x1="600.0" y1="200.0" x2="600.0" y2="300.0"/>
<line x1="500.0" y1="400.0" x2="600.0" y2="400.0"/>
<line x1="600.0" y1="400.0" x2="600.0" y2="500.0"/>
<line x1="600.0" y1="500.0" x2="600.0" y2="600.0"/>
<line x1="600.0" y1="600.0" x2="600.0" y2="700.0"/>
<line x1="500.0" y1="800.0" x2="600.0" y2="800.0"/>
<line x1="500.0" y1="900.0" x2="600.0" y2="900.0"/>
<line x1="500.0" y1="1000.0" x2="600.0" y2="1000.0"/>
<line x1="700.0" y1="0.0" x2="700.0" y2="100.0"/>
<line x1="600.0" y1="200.0" x2="700.0" y2="200.0"/>
<line x1="600.0" y1="300.0" x2="700.0" y2="300.0"/>
<line x1="600.0" y1="400.0" x2="700.0" y2="400.0"/>
<line x1="700.0" y1="500.0" x2="700.0" y2="600.0"/>
<line x1="600.0" y1="700.0" x2="700.0" y2="700.0"/>
<line x1="600.0" y1="800.0" x2="700.0" y2="800.0"/>
<line x1="600.0" y1="900.0" x2="700.0" y2="900.0"/>
<line x1="600.0" y1="1000.0" x2="700.0" y2="1000.0"/>
<line x1="700.0" y1="100.0" x2="800.0" y2="100.0"/>
<line x1="700.0" y1="200.0" x2="800.0" y2="200.0"/>
<line x1="700.0" y1="300.0" x2="800.0" y2="300.0"/>
<line x1="700.0" y1="400.0" x2="800.0" y2="400.0"/>
<line x1="800.0" y1="400.0" x2="800.0" y2="500.0"/>
<line x1="700.0" y1="600.0" x2="800.0" y2="600.0"/>
<line x1="700.0" y1="700.0" x2="800.0" y2="700.0"/>
<line x1="700.0" y1="800.0" x2="800.0" y2="800.0"/>
<line x1="700.0" y1="900.0" x2="800.0" y2="900.0"/>
<line x1="700.0" y1="1000.0" x2="800.0" y2="1000.0"/>
<line x1="800.0" y1="100.0" x2="900.0" y2="100.0"/>
<line x1="900.0" y1="100.0" x2="900.0" y2="200.0"/>
<line x1="800.0" y1="300.0" x2="900.0" y2="300.0"/>
<line x1="900.0" y1="300.0" x2="900.0" y2="400.0"/>
<line x1="800.0" y1="500.0" x2="900.0" y2="500.0"/>
<line x1="800.0" y1="600.0" x2="900.0" y2="600.0"/>
<line x1="800.0" y1="700.0" x2="900.0" y2="700.0"/>
<line x1="900.0" y1="600.0" x2="900.0" y2="700.0"/>
<line x1="800.0" y1="800.0" x2="900.0" y2="800.0"/>
<line x1="800.0" y1="900.0" x2="900.0" y2="900.0"/>
<line x1="800.0" y1="1000.0" x2="900.0" y2="1000.0"/>
<line x1="1000.0" y1="0.0" x2="1000.0" y2="100.0"/>
<line x1="1000.0" y1="100.0" x2="1000.0" y2="200.0"/>
<line x1="1000.0" y1="200.0" x2="1000.0" y2="300.0"/>
<line x1="900.0" y1="400.0" x2="1000.0" y2="400.0"/>
<line x1="1000.0" y1="300.0" x2="1000.0" y2="400.0"/>
<line x1="1000.0" y1="400.0" x2="1000.0" y2="500.0"/>
<line x1="900.0" y1="600.0" x2="1000.0" y2="600.0"/>
<line x1="1000.0" y1="500.0" x2="1000.0" y2="600.0"/>
<line x1="1000.0" y1="600.0" x2="1000.0" y2="700.0"/>
<line x1="1000.0" y1="700.0" x2="1000.0" y2="800.0"/>
<line x1="1000.0" y1="800.0" x2="1000.0" y2="900.0"/>
<line x1="900.0" y1="1000.0" x2="1000.0" y2="1000.0"/>
<line x1="1000.0" y1="900.0" x2="1000.0" y2="1000.0"/>

<line x1="0" y1="0" x2="1000" y2="0"/>
<line x1="0" y1="0" x2="0" y2="1000"/>
</svg>
