<?xml version="1.0" encoding="utf-8"?>
<svg xmlns="http://www.w3.org/2000/svg"
    xmlns:xlink="http://www.w3.org/1999/xlink"
    width="1020" height="1020" viewBox="-10 -10 1020 1020">
<defs>
<style type="text/css"><![CDATA[
line {
    stroke: #000000;
    stroke-linecap: square;
    stroke-width: 4;
}
]]>
.small { font: bold 22.22222222222222px sans-serif;
         fill: lightgray; }}
</style>

</defs>
<rect x="0.0" y="0.0" width="111.11111111111111" height="111.11111111111111" fill="none" stroke="gray" stroke-width="1"/>
<rect x="0.0" y="111.11111111111111" width="111.11111111111111" height="111.11111111111111" fill="none" stroke="gray" stroke-width="1"/>
<rect x="0.0" y="222.22222222222223" width="111.11111111111111" height="111.11111111111111" fill="none" stroke="gray" stroke-width="1"/>
<rect x="0.0" y="333.33333333333337" width="111.11111111111111" height="111.11111111111111" fill="none" stroke="gray" stroke-width="1"/>
<rect x="0.0" y="444.44444444444446" width="111.11111111111111" height="111.11111111111111" fill="none" stroke="gray" stroke-width="1"/>
<rect x="0.0" y="555.5555555555555" width="111.11111111111111" height="111.11111111111111" fill="none" stroke="gray" stroke-width="1"/>
<rect x="0.0" y="666.6666666666667" width="111.11111111111111" height="111.11111111111111" fill="none" stroke="gray" stroke-width="1"/>
<rect x="0.0" y="777.7777777777778" width="111.11111111111111" height="111.11111111111111" fill="none" stroke="gray" stroke-width="1"/>
<rect x="0.0" y="888.8888888888889" width="111.11111111111111" height="111.11111111111111" fill="none" stroke="gray" stroke-width="1"/>
<rect x="111.11111111111111" y="0.0" width="111.11111111111111" height="111.11111111111111" fill="none" stroke="gray" stroke-width="1"/>
<rect x="111.11111111111111" y="111.11111111111111" width="111.11111111111111" height="111.11111111111111" fill="none" stroke="gray" stroke-width="1"/>
<rect x="111.11111111111111" y="222.22222222222223" width="111.11111111111111" height="111.11111111111111" fill="none" stroke="gray" stroke-width="1"/>
<rect x="111.11111111111111" y="333.33333333333337" width="111.11111111111111" height="111.11111111111111" fill="none" stroke="gray" stroke-width="1"/>
<rect x="111.11111111111111" y="444.44444444444446" width="111.11111111111111" height="111.11111111111111" fill="none" stroke="gray" stroke-width="1"/>
<rect x="111.11111111111111" y="555.5555555555555" width="111.11111111111111" height="111.11111111111111" fill="none" stroke="gray" stroke-width="1"/>
<rect x="111.11111111111111" y="666.6666666666667" width="111.11111111111111" height="111.11111111111111" fill="none" stroke="gray" stroke-width="1"/>
<rect x="111.11111111111111" y="777.7777777777778" width="111.11111111111111" height="111.11111111111111" fill="none" stroke="gray" stroke-width="1"/>
<rect x="111.11111111111111" y="888.8888888888889" width="111.11111111111111" height="111.11111111111111" fill="none" stroke="gray" stroke-width="1"/>
<rect x="222.22222222222223" y="0.0" width="111.11111111111111" height="111.11111111111111" fill="none" stroke="gray" stroke-width="1"/>
<rect x="222.22222222222223" y="111.11111111111111" width="111.11111111111111" height="111.11111111111111" fill="none" stroke="gray" stroke-width="1"/>
<rect x="222.22222222222223" y="222.22222222222223" width="111.11111111111111" height="111.11111111111111" fill="none" stroke="gray" stroke-width="1"/>
<rect x="222.22222222222223" y="333.33333333333337" width="111.11111111111111" height="111.11111111111111" fill="none" stroke="gray" stroke-width="1"/>
<rect x="222.22222222222223" y="444.44444444444446" width="111.11111111111111" height="111.11111111111111" fill="none" stroke="gray" stroke-width="1"/>
<rect x="222.22222222222223" y="555.5555555555555" width="111.11111111111111" height="111.11111111111111" fill="none" stroke="gray" stroke-width="1"/>
<rect x="222.22222222222223" y="666.6666666666667" width="111.11111111111111" height="111.11111111111111" fill="none" stroke="gray" stroke-width="1"/>
<rect x="222.22222222222223" y="777.7777777777778" width="111.11111111111111" height="111.11111111111111" fill="none" stroke="gray" stroke-width="1"/>
<rect x="222.22222222222223" y="888.8888888888889" width="111.11111111111111" height="111.11111111111111" fill="none" stroke="gray" stroke-width="1"/>
<rect x="333.33333333333337" y="0.0" width="111.11111111111111" height="111.11111111111111" fill="none" stroke="gray" stroke-width="1"/>
<rect x="333.33333333333337" y="111.11111111111111" width="111.11111111111111" height="111.11111111111111" fill="none" stroke="gray" stroke-width="1"/>
<rect x="333.33333333333337" y="222.22222222222223" width="111.11111111111111" height="111.11111111111111" fill="none" stroke="gray" stroke-width="1"/>
<rect x="333.33333333333337" y="333.33333333333337" width="111.11111111111111" height="111.11111111111111" fill="none" stroke="gray" stroke-width="1"/>
<rect x="333.33333333333337" y="444.44444444444446" width="111.11111111111111" height="111.11111111111111" fill="none" stroke="gray" stroke-width="1"/>
<rect x="333.33333333333337" y="555.5555555555555" width="111.11111111111111" height="111.11111111111111" fill="none" stroke="gray" stroke-width="1"/>
<rect x="333.33333333333337" y="666.6666666666667" width="111.11111111111111" height="111.11111111111111" fill="none" stroke="gray" stroke-width="1"/>
<rect x="333.33333333333337" y="777.7777777777778" width="111.11111111111111" height="111.11111111111111" fill="none" stroke="gray" stroke-width="1"/>
<rect x="333.33333333333337" y="888.8888888888889" width="111.11111111111111" height="111.11111111111111" fill="none" stroke="gray" stroke-width="1"/>
<rect x="444.44444444444446" y="0.0" width="111.11111111111111" height="111.11111111111111" fill="none" stroke="gray" stroke-width="1"/>
<rect x="444.44444444444446" y="111.11111111111111" width="111.11111111111111" height="111.11111111111111" fill="none" stroke="gray" stroke-width="1"/>
<rect x="444.44444444444446" y="222.22222222222223" width="111.11111111111111" height="111.11111111111111" fill="none" stroke="gray" stroke-width="1"/>
<rect x="444.44444444444446" y="333.33333333333337" width="111.11111111111111" height="111.11111111111111" fill="none" stroke="gray" stroke-width="1"/>
<rect x="444.44444444444446" y="444.44444444444446" width="111.11111111111111" height="111.11111111111111" fill="none" stroke="gray" stroke-width="1"/>
<rect x="444.44444444444446" y="555.5555555555555" width="111.11111111111111" height="111.11111111111111" fill="none" stroke="gray" stroke-width="1"/>
<rect x="444.44444444444446" y="666.6666666666667" width="111.11111111111111" height="111.11111111111111" fill="none" stroke="gray" stroke-width="1"/>
<rect x="444.44444444444446" y="777.7777777777778" width="111.11111111111111" height="111.11111111111111" fill="none" stroke="gray" stroke-width="1"/>
<rect x="444.44444444444446" y="888.8888888888889" width="111.11111111111111" height="111.11111111111111" fill="none" stroke="gray" stroke-width="1"/>
<rect x="555.5555555555555" y="0.0" width="111.11111111111111" height="111.11111111111111" fill="none" stroke="gray" stroke-width="1"/>
<rect x="555.5555555555555" y="111.11111111111111" width="111.11111111111111" height="111.11111111111111" fill="none" stroke="gray" stroke-width="1"/>
<rect x="555.5555555555555" y="222.22222222222223" width="111.11111111111111" height="111.11111111111111" fill="none" stroke="gray" stroke-width="1"/>
<rect x="555.5555555555555" y="333.33333333333337" width="111.11111111111111" height="111.11111111111111" fill="none" stroke="gray" stroke-width="1"/>
<rect x="555.5555555555555" y="444.44444444444446" width="111.11111111111111" height="111.11111111111111" fill="none" stroke="gray" stroke-width="1"/>
<rect x="555.5555555555555" y="555.5555555555555" width="111.11111111111111" height="111.11111111111111" fill="none" stroke="gray" stroke-width="1"/>
<rect x="555.5555555555555" y="666.6666666666667" width="111.11111111111111" height="111.11111111111111" fill="none" stroke="gray" stroke-width="1"/>
<rect x="555.5555555555555" y="777.7777777777778" width="111.11111111111111" height="111.11111111111111" fill="none" stroke="gray" stroke-width="1"/>
<rect x="555.5555555555555" y="888.8888888888889" width="111.11111111111111" height="111.11111111111111" fill="none" stroke="gray" stroke-width="1"/>
<rect x="666.6666666666667" y="0.0" width="111.11111111111111" height="111.11111111111111" fill="none" stroke="gray" stroke-width="1"/>
<rect x="666.6666666666667" y="111.11111111111111" width="111.11111111111111" height="111.11111111111111" fill="none" stroke="gray" stroke-width="1"/>
<rect x="666.6666666666667" y="222.22222222222223" width="111.11111111111111" height="111.11111111111111" fill="none" stroke="gray" stroke-width="1"/>
<rect x="666.6666666666667" y="333.33333333333337" width="111.11111111111111" height="111.11111111111111" fill="none" stroke="gray" stroke-width="1"/>
<rect x="666.6666666666667" y="444.44444444444446" width="111.11111111111111" height="111.11111111111111" fill="none" stroke="gray" stroke-width="1"/>
<rect x="666.6666666666667" y="555.5555555555555" width="111.11111111111111" height="111.11111111111111" fill="none" stroke="gray" stroke-width="1"/>
<rect x="666.6666666666667" y="666.6666666666667" width="111.11111111111111" height="111.11111111111111" fill="none" stroke="gray" stroke-width="1"/>
<rect x="666.6666666666667" y="777.7777777777778" width="111.11111111111111" height="111.11111111111111" fill="none" stroke="gray" stroke-width="1"/>
<rect x="666.6666666666667" y="888.8888888888889" width="111.11111111111111" height="111.11111111111111" fill="none" stroke="gray" stroke-width="1"/>
<rect x="777.7777777777778" y="0.0" width="111.11111111111111" height="111.11111111111111" fill="none" stroke="gray" stroke-width="1"/>
<rect x="777.7777777777778" y="111.11111111111111" width="111.11111111111111" height="111.11111111111111" fill="none" stroke="gray" stroke-width="1"/>
<rect x="777.7777777777778" y="222.22222222222223" width="111.11111111111111" height="111.11111111111111" fill="none" stroke="gray" stroke-width="1"/>
<rect x="777.7777777777778" y="333.33333333333337" width="111.11111111111111" height="111.11111111111111" fill="none" stroke="gray" stroke-width="1"/>
<rect x="777.7777777777778" y="444.44444444444446" width="111.11111111111111" height="111.11111111111111" fill="none" stroke="gray" stroke-width="1"/>
<rect x="777.7777777777778" y="555.5555555555555" width="111.11111111111111" height="111.11111111111111" fill="none" stroke="gray" stroke-width="1"/>
<rect x="777.7777777777778" y="666.6666666666667" width="111.11111111111111" height="111.11111111111111" fill="none" stroke="gray" stroke-width="1"/>
<rect x="777.7777777777778" y="777.7777777777778" width="111.11111111111111" height="111.11111111111111" fill="none" stroke="gray" stroke-width="1"/>
<rect x="777.7777777777778" y="888.8888888888889" width="111.11111111111111" height="111.11111111111111" fill="none" stroke="gray" stroke-width="1"/>
<rect x="888.8888888888889" y="0.0" width="111.11111111111111" height="111.11111111111111" fill="none" stroke="gray" stroke-width="1"/>
<rect x="888.8888888888889" y="111.11111111111111" width="111.11111111111111" height="111.11111111111111" fill="none" stroke="gray" stroke-width="1"/>
<rect x="888.8888888888889" y="222.22222222222223" width="111.11111111111111" height="111.11111111111111" fill="none" stroke="gray" stroke-width="1"/>
<rect x="888.8888888888889" y="333.33333333333337" width="111.11111111111111" height="111.11111111111111" fill="none" stroke="gray" stroke-width="1"/>
<rect x="888.8888888888889" y="444.44444444444446" width="111.11111111111111" height="111.11111111111111" fill="none" stroke="gray" stroke-width="1"/>
<rect x="888.8888888888889" y="555.5555555555555" width="111.11111111111111" height="111.11111111111111" fill="none" stroke="gray" stroke-width="1"/>
<rect x="888.8888888888889" y="666.6666666666667" width="111.11111111111111" height="111.11111111111111" fill="none" stroke="gray" stroke-width="1"/>
<rect x="888.8888888888889" y="777.7777777777778" width="111.11111111111111" height="111.11111111111111" fill="none" stroke="gray" stroke-width="1"/>
<rect x="888.8888888888889" y="888.8888888888889" width="111.11111111111111" height="111.11111111111111" fill="none" stroke="gray" stroke-width="1"/>

<text x="11.111111111111112" y="33.333333333333336" class="small">S0</text>
<text x="11.111111111111112" y="144.44444444444446" class="small">S9</text>
<text x="11.111111111111112" y="255.55555555555554" class="small">S18</text>
<text x="11.111111111111112" y="366.6666666666667" class="small">S27</text>
<text x="11.111111111111112" y="477.77777777777777" class="small">S36</text>
<text x="11.111111111111112" y="588.8888888888889" class="small">S45</text>
<text x="11.111111111111112" y="700.0" class="small">S54</text>
<text x="11.111111111111112" y="811.1111111111111" class="small">S63</text>
<text x="11.111111111111112" y="922.2222222222223" class="small">S72</text>
<text x="122.22222222222223" y="33.333333333333336" class="small">S1</text>
<text x="122.22222222222223" y="144.44444444444446" class="small">S10</text>
<text x="122.22222222222223" y="255.55555555555554" class="small">S19</text>
<text x="122.22222222222223" y="366.6666666666667" class="small">S28</text>
<text x="122.22222222222223" y="477.77777777777777" class="small">S37</text>
<text x="122.22222222222223" y="588.8888888888889" class="small">S46</text>
<text x="122.22222222222223" y="700.0" class="small">S55</text>
<text x="122.22222222222223" y="811.1111111111111" class="small">S64</text>
<text x="122.22222222222223" y="922.2222222222223" class="small">S73</text>
<text x="233.33333333333334" y="33.333333333333336" class="small">S2</text>
<text x="233.33333333333334" y="144.44444444444446" class="small">S11</text>
<text x="233.33333333333334" y="255.55555555555554" class="small">S20</text>
<text x="233.33333333333334" y="366.6666666666667" class="small">S29</text>
<text x="233.33333333333334" y="477.77777777777777" class="small">S38</text>
<text x="233.33333333333334" y="588.8888888888889" class="small">S47</text>
<text x="233.33333333333334" y="700.0" class="small">S56</text>
<text x="233.33333333333334" y="811.1111111111111" class="small">S65</text>
<text x="233.33333333333334" y="922.2222222222223" class="small">S74</text>
<text x="344.44444444444446" y="33.333333333333336" class="small">S3</text>
<text x="344.44444444444446" y="144.44444444444446" class="small">S12</text>
<text x="344.44444444444446" y="255.55555555555554" class="small">S21</text>
<text x="344.44444444444446" y="366.6666666666667" class="small">S30</text>
<text x="344.44444444444446" y="477.77777777777777" class="small">S39</text>
<text x="344.44444444444446" y="588.8888888888889" class="small">S48</text>
<text x="344.44444444444446" y="700.0" class="small">S57</text>
<text x="344.44444444444446" y="811.1111111111111" class="small">S66</text>
<text x="344.44444444444446" y="922.2222222222223" class="small">S75</text>
<text x="455.55555555555554" y="33.333333333333336" class="small">S4</text>
<text x="455.55555555555554" y="144.44444444444446" class="small">S13</text>
<text x="455.55555555555554" y="255.55555555555554" class="small">S22</text>
<text x="455.55555555555554" y="366.6666666666667" class="small">S31</text>
<text x="455.55555555555554" y="477.77777777777777" class="small">S40</text>
<text x="455.55555555555554" y="588.8888888888889" class="small">S49</text>
<text x="455.55555555555554" y="700.0" class="small">S58</text>
<text x="455.55555555555554" y="811.1111111111111" class="small">S67</text>
<text x="455.55555555555554" y="922.2222222222223" class="small">S76</text>
<text x="566.6666666666666" y="33.333333333333336" class="small">S5</text>
<text x="566.6666666666666" y="144.44444444444446" class="small">S14</text>
<text x="566.6666666666666" y="255.55555555555554" class="small">S23</text>
<text x="566.6666666666666" y="366.6666666666667" class="small">S32</text>
<text x="566.6666666666666" y="477.77777777777777" class="small">S41</text>
<text x="566.6666666666666" y="588.8888888888889" class="small">S50</text>
<text x="566.6666666666666" y="700.0" class="small">S59</text>
<text x="566.6666666666666" y="811.1111111111111" class="small">S68</text>
<text x="566.6666666666666" y="922.2222222222223" class="small">S77</text>
<text x="677.7777777777777" y="33.333333333333336" class="small">S6</text>
<text x="677.7777777777777" y="144.44444444444446" class="small">S15</text>
<text x="677.7777777777777" y="255.55555555555554" class="small">S24</text>
<text x="677.7777777777777" y="366.6666666666667" class="small">S33</text>
<text x="677.7777777777777" y="477.77777777777777" class="small">S42</text>
<text x="677.7777777777777" y="588.8888888888889" class="small">S51</text>
<text x="677.7777777777777" y="700.0" class="small">S60</text>
<text x="677.7777777777777" y="811.1111111111111" class="small">S69</text>
<text x="677.7777777777777" y="922.2222222222223" class="small">S78</text>
<text x="788.8888888888889" y="33.333333333333336" class="small">S7</text>
<text x="788.8888888888889" y="144.44444444444446" class="small">S16</text>
<text x="788.8888888888889" y="255.55555555555554" class="small">S25</text>
<text x="788.8888888888889" y="366.6666666666667" class="small">S34</text>
<text x="788.8888888888889" y="477.77777777777777" class="small">S43</text>
<text x="788.8888888888889" y="588.8888888888889" class="small">S52</text>
<text x="788.8888888888889" y="700.0" class="small">S61</text>
<text x="788.8888888888889" y="811.1111111111111" class="small">S70</text>
<text x="788.8888888888889" y="922.2222222222223" class="small">S79</text>
<text x="900.0" y="33.333333333333336" class="small">S8</text>
<text x="900.0" y="144.44444444444446" class="small">S17</text>
<text x="900.0" y="255.55555555555554" class="small">S26</text>
<text x="900.0" y="366.6666666666667" class="small">S35</text>
<text x="900.0" y="477.77777777777777" class="small">S44</text>
<text x="900.0" y="588.8888888888889" class="small">S53</text>
<text x="900.0" y="700.0" class="small">S62</text>
<text x="900.0" y="811.1111111111111" class="small">S71</text>
<text x="900.0" y="922.2222222222223" class="small">S80</text>

<line x1="111.11111111111111" y1="111.11111111111111" x2="111.11111111111111" y2="222.22222222222223"/>
<line x1="111.11111111111111" y1="222.22222222222223" x2="111.11111111111111" y2="333.33333333333337"/>
<line x1="0.0" y1="444.44444444444446" x2="111.11111111111111" y2="444.44444444444446"/>
<line x1="111.11111111111111" y1="333.33333333333337" x2="111.11111111111111" y2="444.44444444444446"/>
<line x1="111.11111111111111" y1="666.6666666666667" x2="111.11111111111111" y2="777.7777777777778"/>
<line x1="0.0" y1="888.8888888888889" x2="111.11111111111111" y2="888.8888888888889"/>
<line x1="0.0" y1="1000.0" x2="111.11111111111111" y2="1000.0"/>
<line x1="222.22222222222223" y1="0.0" x2="222.22222222222223" y2="111.11111111111111"/>
<line x1="111.11111111111111" y1="222.22222222222223" x2="222.22222222222223" y2="222.22222222222223"/>
<line x1="222.22222222222223" y1="333.33333333333337" x2="222.22222222222223" y2="444.44444444444446"/>
<line x1="111.11111111111111" y1="555.5555555555555" x2="222.22222222222223" y2="555.5555555555555"/>
<line x1="222.22222222222223" y1="444.44444444444446" x2="222.22222222222223" y2="555.5555555555555"/>
<line x1="222.22222222222223" y1="555.5555555555555" x2="222.22222222222223" y2="666.6666666666667"/>
<line x1="111.11111111111111" y1="777.7777777777778" x2="222.22222222222223" y2="777.7777777777778"/>
<line x1="222.22222222222223" y1="777.7777777777778" x2="222.22222222222223" y2="888.8888888888889"/>
<line x1="111.11111111111111" y1="1000.0" x2="222.22222222222223" y2="1000.0"/>
<line x1="222.22222222222223" y1="222.22222222222223" x2="333.33333333333337" y2="222.22222222222223"/>
<line x1="333.33333333333337" y1="111.11111111111111" x2="333.33333333333337" y2="222.22222222222223"/>
<line x1="333.33333333333337" y1="222.22222222222223" x2="333.33333333333337" y2="333.33333333333337"/>
<line x1="222.22222222222223" y1="444.44444444444446" x2="333.33333333333337" y2="444.44444444444446"/>
<line x1="333.33333333333337" y1="444.44444444444446" x2="333.33333333333337" y2="555.5555555555555"/>
<line x1="222.22222222222223" y1="666.6666666666667" x2="333.33333333333337" y2="666.6666666666667"/>
<line x1="222.22222222222223" y1="777.7777777777778" x2="333.33333333333337" y2="777.7777777777778"/>
<line x1="222.22222222222223" y1="888.8888888888889" x2="333.33333333333337" y2="888.8888888888889"/>
<line x1="222.22222222222223" y1="1000.0" x2="333.33333333333337" y2="1000.0"/>
<line x1="333.33333333333337" y1="333.33333333333337" x2="444.44444444444446" y2="333.33333333333337"/>
<line x1="444.44444444444446" y1="333.33333333333337" x2="444.44444444444446" y2="444.44444444444446"/>
<line x1="444.44444444444446" y1="444.44444444444446" x2="444.44444444444446" y2="555.5555555555555"/>
<line x1="333.33333333333337" y1="666.6666666666667" x2="444.44444444444446" y2="666.6666666666667"/>
<line x1="333.33333333333337" y1="777.7777777777778" x2="444.44444444444446" y2="777.7777777777778"/>
<line x1="444.44444444444446" y1="777.7777777777778" x2="444.44444444444446" y2="888.8888888888889"/>
<line x1="333.33333333333337" y1="1000.0" x2="444.44444444444446" y2="1000.0"/>
<line x1="444.44444444444446" y1="888.8888888888889" x2="444.44444444444446" y2="1000.0"/>
<line x1="444.44444444444446" y1="111.11111111111111" x2="555.5555555555555" y2="111.11111111111111"/>
<line x1="444.44444444444446" y1="222.22222222222223" x2="555.5555555555555" y2="222.22222222222223"/>
<line x1="555.5555555555555" y1="222.22222222222223" x2="555.5555555555555" y2="333.33333333333337"/>
<line x1="444.44444444444446" y1="555.5555555555555" x2="555.5555555555555" y2="555.5555555555555"/>
<line x1="555.5555555555555" y1="444.44444444444446" x2="555.5555555555555" y2="555.5555555555555"/>
<line x1="444.44444444444446" y1="666.6666666666667" x2="555.5555555555555" y2="666.6666666666667"/>
<line x1="444.44444444444446" y1="777.7777777777778" x2="555.5555555555555" y2="777.7777777777778"/>
<line x1="444.44444444444446" y1="1000.0" x2="555.5555555555555" y2="1000.0"/>
<line x1="555.5555555555555" y1="111.11111111111111" x2="666.6666666666667" y2="111.11111111111111"/>
<line x1="666.6666666666667" y1="111.11111111111111" x2="666.6666666666667" y2="222.22222222222223"/>
<line x1="555.5555555555555" y1="333.33333333333337" x2="666.6666666666667" y2="333.33333333333337"/>
<line x1="555.5555555555555" y1="444.44444444444446" x2="666.6666666666667" y2="444.44444444444446"/>
<line x1="555.5555555555555" y1="666.6666666666667" x2="666.6666666666667" y2="666.6666666666667"/>
<line x1="666.6666666666667" y1="555.5555555555555" x2="666.6666666666667" y2="666.6666666666667"/>
<line x1="666.6666666666667" y1="666.6666666666667" x2="666.6666666666667" y2="777.7777777777778"/>
<line x1="555.5555555555555" y1="888.8888888888889" x2="666.6666666666667" y2="888.8888888888889"/>
<line x1="666.6666666666667" y1="777.7777777777778" x2="666.6666666666667" y2="888.8888888888889"/>
<line x1="555.5555555555555" y1="1000.0" x2="666.6666666666667" y2="1000.0"/>
<line x1="666.6666666666667" y1="111.11111111111111" x2="777.7777777777778" y2="111.11111111111111"/>
<line x1="777.7777777777778" y1="0.0" x2="777.7777777777778" y2="111.11111111111111"/>
<line x1="666.6666666666667" y1="333.33333333333337" x2="777.7777777777778" y2="333.33333333333337"/>
<line x1="777.7777777777778" y1="222.22222222222223" x2="777.7777777777778" y2="333.33333333333337"/>
<line x1="666.6666666666667" y1="444.44444444444446" x2="777.7777777777778" y2="444.44444444444446"/>
<line x1="777.7777777777778" y1="333.33333333333337" x2="777.7777777777778" y2="444.44444444444446"/>
<line x1="777.7777777777778" y1="555.5555555555555" x2="777.7777777777778" y2="666.6666666666667"/>
<line x1="777.7777777777778" y1="666.6666666666667" x2="777.7777777777778" y2="777.7777777777778"/>
<line x1="666.6666666666667" y1="888.8888888888889" x2="777.7777777777778" y2="888.8888888888889"/>
<line x1="777.7777777777778" y1="777.7777777777778" x2="777.7777777777778" y2="888.8888888888889"/>
<line x1="666.6666666666667" y1="1000.0" x2="777.7777777777778" y2="1000.0"/>
<line x1="777.7777777777778" y1="222.22222222222223" x2="888.8888888888889" y2="222.22222222222223"/>
<line x1="888.8888888888889" y1="111.11111111111111" x2="888.8888888888889" y2="222.22222222222223"/>
<line x1="888.8888888888889" y1="333.33333333333337" x2="888.8888888888889" y2="444.44444444444446"/>
<line x1="777.7777777777778" y1="555.5555555555555" x2="888.8888888888889" y2="555.5555555555555"/>
<line x1="888.8888888888889" y1="444.44444444444446" x2="888.8888888888889" y2="555.5555555555555"/>
<line x1="888.8888888888889" y1="555.5555555555555" x2="888.8888888888889" y2="666.6666666666667"/>
<line x1="888.8888888888889" y1="666.6666666666667" x2="888.8888888888889" y2="777.7777777777778"/>
<line x1="888.8888888888889" y1="777.7777777777778" x2="888.8888888888889" y2="888.8888888888889"/>
<line x1="777.7777777777778" y1="1000.0" x2="888.8888888888889" y2="1000.0"/>
<line x1="888.8888888888889" y1="888.8888888888889" x2="888.8888888888889" y2="1000.0"/>
<line x1="1000.0" y1="0.0" x2="1000.0" y2="111.11111111111111"/>
<line x1="1000.0" y1="111.11111111111111" x2="1000.0" y2="222.22222222222223"/>
<line x1="1000.0" y1="222.22222222222223" x2="1000.0" y2="333.33333333333337"/>
<line x1="1000.0" y1="333.33333333333337" x2="1000.0" y2="444.44444444444446"/>
<line x1="1000.0" y1="444.44444444444446" x2="1000.0" y2="555.5555555555555"/>
<line x1="1000.0" y1="555.5555555555555" x2="1000.0" y2="666.6666666666667"/>
<line x1="1000.0" y1="666.6666666666667" x2="1000.0" y2="777.7777777777778"/>
<line x1="1000.0" y1="777.7777777777778" x2="1000.0" y2="888.8888888888889"/>
<line x1="888.8888888888889" y1="1000.0" x2="1000.0" y2="1000.0"/>
<line x1="1000.0" y1="888.8888888888889" x2="1000.0" y2="1000.0"/>

<line x1="0" y1="0" x2="1000" y2="0"/>
<line x1="0" y1="0" x2="0" y2="1000"/>
</svg>
