<?xml version="1.0" encoding="utf-8"?>
<svg xmlns="http://www.w3.org/2000/svg"
    xmlns:xlink="http://www.w3.org/1999/xlink"
    width="1020" height="1020" viewBox="-10 -10 1020 1020">
<defs>
<style type="text/css"><![CDATA[
line {
    stroke: #000000;
    stroke-linecap: square;
    stroke-width: 4;
}
]]>
.small { font: bold 22.22222222222222px sans-serif;
         fill: lightgray; }}
</style>

</defs>
<rect x="0.0" y="0.0" width="111.11111111111111" height="111.11111111111111" fill="none" stroke="gray" stroke-width="1"/>
<rect x="0.0" y="111.11111111111111" width="111.11111111111111" height="111.11111111111111" fill="none" stroke="gray" stroke-width="1"/>
<rect x="0.0" y="222.22222222222223" width="111.11111111111111" height="111.11111111111111" fill="none" stroke="gray" stroke-width="1"/>
<rect x="0.0" y="333.33333333333337" width="111.11111111111111" height="111.11111111111111" fill="none" stroke="gray" stroke-width="1"/>
<rect x="0.0" y="444.44444444444446" width="111.11111111111111" height="111.11111111111111" fill="none" stroke="gray" stroke-width="1"/>
<rect x="0.0" y="555.5555555555555" width="111.11111111111111" height="111.11111111111111" fill="none" stroke="gray" stroke-width="1"/>
<rect x="0.0" y="666.6666666666667" width="111.11111111111111" height="111.11111111111111" fill="none" stroke="gray" stroke-width="1"/>
<rect x="0.0" y="777.7777777777778" width="111.11111111111111" height="111.11111111111111" fill="none" stroke="gray" stroke-width="1"/>
<rect x="0.0" y="888.8888888888889" width="111.11111111111111" height="111.11111111111111" fill="none" stroke="gray" stroke-width="1"/>
<rect x="111.11111111111111" y="0.0" width="111.11111111111111" height="111.11111111111111" fill="none" stroke="gray" stroke-width="1"/>
<rect x="111.11111111111111" y="111.11111111111111" width="111.11111111111111" height="111.11111111111111" fill="none" stroke="gray" stroke-width="1"/>
<rect x="111.11111111111111" y="222.22222222222223" width="111.11111111111111" height="111.11111111111111" fill="none" stroke="gray" stroke-width="1"/>
<rect x="111.11111111111111" y="333.33333333333337" width="111.11111111111111" height="111.11111111111111" fill="none" stroke="gray" stroke-width="1"/>
<rect x="111.11111111111111" y="444.44444444444446" width="111.11111111111111" height="111.11111111111111" fill="none" stroke="gray" stroke-width="1"/>
<rect x="111.11111111111111" y="555.5555555555555" width="111.11111111111111" height="111.11111111111111" fill="none" stroke="gray" stroke-width="1"/>
<rect x="111.11111111111111" y="666.6666666666667" width="111.11111111111111" height="111.11111111111111" fill="none" stroke="gray" stroke-width="1"/>
<rect x="111.11111111111111" y="777.7777777777778" width="111.11111111111111" height="111.11111111111111" fill="none" stroke="gray" stroke-width="1"/>
<rect x="111.11111111111111" y="888.8888888888889" width="111.11111111111111" height="111.11111111111111" fill="none" stroke="gray" stroke-width="1"/>
<rect x="222.22222222222223" y="0.0" width="111.11111111111111" height="111.11111111111111" fill="none" stroke="gray" stroke-width="1"/>
<rect x="222.22222222222223" y="111.11111111111111" width="111.11111111111111" height="111.11111111111111" fill="none" stroke="gray" stroke-width="1"/>
<rect x="222.22222222222223" y="222.22222222222223" width="111.11111111111111" height="111.11111111111111" fill="none" stroke="gray" stroke-width="1"/>
<rect x="222.22222222222223" y="333.33333333333337" width="111.11111111111111" height="111.11111111111111" fill="none" stroke="gray" stroke-width="1"/>
<rect x="222.22222222222223" y="444.44444444444446" width="111.11111111111111" height="111.11111111111111" fill="none" stroke="gray" stroke-width="1"/>
<rect x="222.22222222222223" y="555.5555555555555" width="111.11111111111111" height="111.11111111111111" fill="none" stroke="gray" stroke-width="1"/>
<rect x="222.22222222222223" y="666.6666666666667" width="111.11111111111111" height="111.11111111111111" fill="none" stroke="gray" stroke-width="1"/>
<rect x="222.22222222222223" y="777.7777777777778" width="111.11111111111111" height="111.11111111111111" fill="none" stroke="gray" stroke-width="1"/>
<rect x="222.22222222222223" y="888.8888888888889" width="111.11111111111111" height="111.11111111111111" fill="none" stroke="gray" stroke-width="1"/>
<rect x="333.33333333333337" y="0.0" width="111.11111111111111" height="111.11111111111111" fill="none" stroke="gray" stroke-width="1"/>
<rect x="333.33333333333337" y="111.11111111111111" width="111.11111111111111" height="111.11111111111111" fill="none" stroke="gray" stroke-width="1"/>
<rect x="333.33333333333337" y="222.22222222222223" width="111.11111111111111" height="111.11111111111111" fill="none" stroke="gray" stroke-width="1"/>
<rect x="333.33333333333337" y="333.33333333333337" width="111.11111111111111" height="111.11111111111111" fill="none" stroke="gray" stroke-width="1"/>
<rect x="333.33333333333337" y="444.44444444444446" width="111.11111111111111" height="111.11111111111111" fill="none" stroke="gray" stroke-width="1"/>
<rect x="333.33333333333337" y="555.5555555555555" width="111.11111111111111" height="111.11111111111111" fill="none" stroke="gray" stroke-width="1"/>
<rect x="333.33333333333337" y="666.6666666666667" width="111.11111111111111" height="111.11111111111111" fill="none" stroke="gray" stroke-width="1"/>
<rect x="333.33333333333337" y="777.7777777777778" width="111.11111111111111" height="111.11111111111111" fill="none" stroke="gray" stroke-width="1"/>
<rect x="333.33333333333337" y="888.8888888888889" width="111.11111111111111" height="111.11111111111111" fill="none" stroke="gray" stroke-width="1"/>
<rect x="444.44444444444446" y="0.0" width="111.11111111111111" height="111.11111111111111" fill="none" stroke="gray" stroke-width="1"/>
<rect x="444.44444444444446" y="111.11111111111111" width="111.11111111111111" height="111.11111111111111" fill="none" stroke="gray" stroke-width="1"/>
<rect x="444.44444444444446" y="222.22222222222223" width="111.11111111111111" height="111.11111111111111" fill="none" stroke="gray" stroke-width="1"/>
<rect x="444.44444444444446" y="333.33333333333337" width="111.11111111111111" height="111.11111111111111" fill="none" stroke="gray" stroke-width="1"/>
<rect x="444.44444444444446" y="444.44444444444446" width="111.11111111111111" height="111.11111111111111" fill="none" stroke="gray" stroke-width="1"/>
<rect x="444.44444444444446" y="555.5555555555555" width="111.11111111111111" height="111.11111111111111" fill="none" stroke="gray" stroke-width="1"/>
<rect x="444.44444444444446" y="666.6666666666667" width="111.11111111111111" height="111.11111111111111" fill="none" stroke="gray" stroke-width="1"/>
<rect x="444.44444444444446" y="777.7777777777778" width="111.11111111111111" height="111.11111111111111" fill="none" stroke="gray" stroke-width="1"/>
<rect x="444.44444444444446" y="888.8888888888889" width="111.11111111111111" height="111.11111111111111" fill="none" stroke="gray" stroke-width="1"/>
<rect x="555.5555555555555" y="0.0" width="111.11111111111111" height="111.11111111111111" fill="none" stroke="gray" stroke-width="1"/>
<rect x="555.5555555555555" y="111.11111111111111" width="111.11111111111111" height="111.11111111111111" fill="none" stroke="gray" stroke-width="1"/>
<rect x="555.5555555555555" y="222.22222222222223" width="111.11111111111111" height="111.11111111111111" fill="none" stroke="gray" stroke-width="1"/>
<rect x="555.5555555555555" y="333.33333333333337" width="111.11111111111111" height="111.11111111111111" fill="none" stroke="gray" stroke-width="1"/>
<rect x="555.5555555555555" y="444.44444444444446" width="111.11111111111111" height="111.11111111111111" fill="none" stroke="gray" stroke-width="1"/>
<rect x="555.5555555555555" y="555.5555555555555" width="111.11111111111111" height="111.11111111111111" fill="none" stroke="gray" stroke-width="1"/>
<rect x="555.5555555555555" y="666.6666666666667" width="111.11111111111111" height="111.11111111111111" fill="none" stroke="gray" stroke-width="1"/>
<rect x="555.5555555555555" y="777.7777777777778" width="111.11111111111111" height="111.11111111111111" fill="none" stroke="gray" stroke-width="1"/>
<rect x="555.5555555555555" y="888.8888888888889" width="111.11111111111111" height="111.11111111111111" fill="none" stroke="gray" stroke-width="1"/>
<rect x="666.6666666666667" y="0.0" width="111.11111111111111" height="111.11111111111111" fill="none" stroke="gray" stroke-width="1"/>
<rect x="666.6666666666667" y="111.11111111111111" width="111.11111111111111" height="111.11111111111111" fill="none" stroke="gray" stroke-width="1"/>
<rect x="666.6666666666667" y="222.22222222222223" width="111.11111111111111" height="111.11111111111111" fill="none" stroke="gray" stroke-width="1"/>
<rect x="666.6666666666667" y="333.33333333333337" width="111.11111111111111" height="111.11111111111111" fill="none" stroke="gray" stroke-width="1"/>
<rect x="666.6666666666667" y="444.44444444444446" width="111.11111111111111" height="111.11111111111111" fill="none" stroke="gray" stroke-width="1"/>
<rect x="666.6666666666667" y="555.5555555555555" width="111.11111111111111" height="111.11111111111111" fill="none" stroke="gray" stroke-width="1"/>
<rect x="666.6666666666667" y="666.6666666666667" width="111.11111111111111" height="111.11111111111111" fill="none" stroke="gray" stroke-width="1"/>
<rect x="666.6666666666667" y="777.7777777777778" width="111.11111111111111" height="111.11111111111111" fill="none" stroke="gray" stroke-width="1"/>
<rect x="666.6666666666667" y="888.8888888888889" width="111.11111111111111" height="111.11111111111111" fill="none" stroke="gray" stroke-width="1"/>
<rect x="777.7777777777778" y="0.0" width="111.11111111111111" height="111.11111111111111" fill="none" stroke="gray" stroke-width="1"/>
<rect x="777.7777777777778" y="111.11111111111111" width="111.11111111111111" height="111.11111111111111" fill="none" stroke="gray" stroke-width="1"/>
<rect x="777.7777777777778" y="222.22222222222223" width="111.11111111111111" height="111.11111111111111" fill="none" stroke="gray" stroke-width="1"/>
<rect x="777.7777777777778" y="333.33333333333337" width="111.11111111111111" height="111.11111111111111" fill="none" stroke="gray" stroke-width="1"/>
<rect x="777.7777777777778" y="444.44444444444446" width="111.11111111111111" height="111.11111111111111" fill="none" stroke="gray" stroke-width="1"/>
<rect x="777.7777777777778" y="555.5555555555555" width="111.11111111111111" height="111.11111111111111" fill="none" stroke="gray" stroke-width="1"/>
<rect x="777.7777777777778" y="666.6666666666667" width="111.11111111111111" height="111.11111111111111" fill="none" stroke="gray" stroke-width="1"/>
<rect x="777.7777777777778" y="777.7777777777778" width="111.11111111111111" height="111.11111111111111" fill="none" stroke="gray" stroke-width="1"/>
<rect x="777.7777777777778" y="888.8888888888889" width="111.11111111111111" height="111.11111111111111" fill="none" stroke="gray" stroke-width="1"/>
<rect x="888.8888888888889" y="0.0" width="111.11111111111111" height="111.11111111111111" fill="none" stroke="gray" stroke-width="1"/>
<rect x="888.8888888888889" y="111.11111111111111" width="111.11111111111111" height="111.11111111111111" fill="none" stroke="gray" stroke-width="1"/>
<rect x="888.8888888888889" y="222.22222222222223" width="111.11111111111111" height="111.11111111111111" fill="none" stroke="gray" stroke-width="1"/>
<rect x="888.8888888888889" y="333.33333333333337" width="111.11111111111111" height="111.11111111111111" fill="none" stroke="gray" stroke-width="1"/>
<rect x="888.8888888888889" y="444.44444444444446" width="111.11111111111111" height="111.11111111111111" fill="none" stroke="gray" stroke-width="1"/>
<rect x="888.8888888888889" y="555.5555555555555" width="111.11111111111111" height="111.11111111111111" fill="none" stroke="gray" stroke-width="1"/>
<rect x="888.8888888888889" y="666.6666666666667" width="111.11111111111111" height="111.11111111111111" fill="none" stroke="gray" stroke-width="1"/>
<rect x="888.8888888888889" y="777.7777777777778" width="111.11111111111111" height="111.11111111111111" fill="none" stroke="gray" stroke-width="1"/>
<rect x="888.8888888888889" y="888.8888888888889" width="111.11111111111111" height="111.11111111111111" fill="none" stroke="gray" stroke-width="1"/>

<text x="11.111111111111112" y="33.333333333333336" class="small">(0,0)</text>
<text x="11.111111111111112" y="144.44444444444446" class="small">(0,1)</text>
<text x="11.111111111111112" y="255.55555555555554" class="small">(0,2)</text>
<text x="11.111111111111112" y="366.6666666666667" class="small">(0,3)</text>
<text x="11.111111111111112" y="477.77777777777777" class="small">(0,4)</text>
<text x="11.111111111111112" y="588.8888888888889" class="small">(0,5)</text>
<text x="11.111111111111112" y="700.0" class="small">(0,6)</text>
<text x="11.111111111111112" y="811.1111111111111" class="small">(0,7)</text>
<text x="11.111111111111112" y="922.2222222222223" class="small">(0,8)</text>
<text x="122.22222222222223" y="33.333333333333336" class="small">(1,0)</text>
<text x="122.22222222222223" y="144.44444444444446" class="small">(1,1)</text>
<text x="122.22222222222223" y="255.55555555555554" class="small">(1,2)</text>
<text x="122.22222222222223" y="366.6666666666667" class="small">(1,3)</text>
<text x="122.22222222222223" y="477.77777777777777" class="small">(1,4)</text>
<text x="122.22222222222223" y="588.8888888888889" class="small">(1,5)</text>
<text x="122.22222222222223" y="700.0" class="small">(1,6)</text>
<text x="122.22222222222223" y="811.1111111111111" class="small">(1,7)</text>
<text x="122.22222222222223" y="922.2222222222223" class="small">(1,8)</text>
<text x="233.33333333333334" y="33.333333333333336" class="small">(2,0)</text>
<text x="233.33333333333334" y="144.44444444444446" class="small">(2,1)</text>
<text x="233.33333333333334" y="255.55555555555554" class="small">(2,2)</text>
<text x="233.33333333333334" y="366.6666666666667" class="small">(2,3)</text>
<text x="233.33333333333334" y="477.77777777777777" class="small">(2,4)</text>
<text x="233.33333333333334" y="588.8888888888889" class="small">(2,5)</text>
<text x="233.33333333333334" y="700.0" class="small">(2,6)</text>
<text x="233.33333333333334" y="811.1111111111111" class="small">(2,7)</text>
<text x="233.33333333333334" y="922.2222222222223" class="small">(2,8)</text>
<text x="344.44444444444446" y="33.333333333333336" class="small">(3,0)</text>
<text x="344.44444444444446" y="144.44444444444446" class="small">(3,1)</text>
<text x="344.44444444444446" y="255.55555555555554" class="small">(3,2)</text>
<text x="344.44444444444446" y="366.6666666666667" class="small">(3,3)</text>
<text x="344.44444444444446" y="477.77777777777777" class="small">(3,4)</text>
<text x="344.44444444444446" y="588.8888888888889" class="small">(3,5)</text>
<text x="344.44444444444446" y="700.0" class="small">(3,6)</text>
<text x="344.44444444444446" y="811.1111111111111" class="small">(3,7)</text>
<text x="344.44444444444446" y="922.2222222222223" class="small">(3,8)</text>
<text x="455.55555555555554" y="33.333333333333336" class="small">(4,0)</text>
<text x="455.55555555555554" y="144.44444444444446" class="small">(4,1)</text>
<text x="455.55555555555554" y="255.55555555555554" class="small">(4,2)</text>
<text x="455.55555555555554" y="366.6666666666667" class="small">(4,3)</text>
<text x="455.55555555555554" y="477.77777777777777" class="small">(4,4)</text>
<text x="455.55555555555554" y="588.8888888888889" class="small">(4,5)</text>
<text x="455.55555555555554" y="700.0" class="small">(4,6)</text>
<text x="455.55555555555554" y="811.1111111111111" class="small">(4,7)</text>
<text x="455.55555555555554" y="922.2222222222223" class="small">(4,8)</text>
<text x="566.6666666666666" y="33.333333333333336" class="small">(5,0)</text>
<text x="566.6666666666666" y="144.44444444444446" class="small">(5,1)</text>
<text x="566.6666666666666" y="255.55555555555554" class="small">(5,2)</text>
<text x="566.6666666666666" y="366.6666666666667" class="small">(5,3)</text>
<text x="566.6666666666666" y="477.77777777777777" class="small">(5,4)</text>
<text x="566.6666666666666" y="588.8888888888889" class="small">(5,5)</text>
<text x="566.6666666666666" y="700.0" class="small">(5,6)</text>
<text x="566.6666666666666" y="811.1111111111111" class="small">(5,7)</text>
<text x="566.6666666666666" y="922.2222222222223" class="small">(5,8)</text>
<text x="677.7777777777777" y="33.333333333333336" class="small">(6,0)</text>
<text x="677.7777777777777" y="144.44444444444446" class="small">(6,1)</text>
<text x="677.7777777777777" y="255.55555555555554" class="small">(6,2)</text>
<text x="677.7777777777777" y="366.6666666666667" class="small">(6,3)</text>
<text x="677.7777777777777" y="477.77777777777777" class="small">(6,4)</text>
<text x="677.7777777777777" y="588.8888888888889" class="small">(6,5)</text>
<text x="677.7777777777777" y="700.0" class="small">(6,6)</text>
<text x="677.7777777777777" y="811.1111111111111" class="small">(6,7)</text>
<text x="677.7777777777777" y="922.2222222222223" class="small">(6,8)</text>
<text x="788.8888888888889" y="33.333333333333336" class="small">(7,0)</text>
<text x="788.8888888888889" y="144.44444444444446" class="small">(7,1)</text>
<text x="788.8888888888889" y="255.55555555555554" class="small">(7,2)</text>
<text x="788.8888888888889" y="366.6666666666667" class="small">(7,3)</text>
<text x="788.8888888888889" y="477.77777777777777" class="small">(7,4)</text>
<text x="788.8888888888889" y="588.8888888888889" class="small">(7,5)</text>
<text x="788.8888888888889" y="700.0" class="small">(7,6)</text>
<text x="788.8888888888889" y="811.1111111111111" class="small">(7,7)</text>
<text x="788.8888888888889" y="922.2222222222223" class="small">(7,8)</text>
<text x="900.0" y="33.333333333333336" class="small">(8,0)</text>
<text x="900.0" y="144.44444444444446" class="small">(8,1)</text>
<text x="900.0" y="255.55555555555554" class="small">(8,2)</text>
<text x="900.0" y="366.6666666666667" class="small">(8,3)</text>
<text x="900.0" y="477.77777777777777" class="small">(8,4)</text>
<text x="900.0" y="588.8888888888889" class="small">(8,5)</text>
<text x="900.0" y="700.0" class="small">(8,6)</text>
<text x="900.0" y="811.1111111111111" class="small">(8,7)</text>
<text x="900.0" y="922.2222222222223" class="small">(8,8)</text>

<line x1="111.11111111111111" y1="111.11111111111111" x2="111.11111111111111" y2="222.22222222222223"/>
<line x1="111.11111111111111" y1="222.22222222222223" x2="111.11111111111111" y2="333.33333333333337"/>
<line x1="0.0" y1="444.44444444444446" x2="111.11111111111111" y2="444.44444444444446"/>
<line x1="111.11111111111111" y1="333.33333333333337" x2="111.11111111111111" y2="444.44444444444446"/>
<line x1="111.11111111111111" y1="666.6666666666667" x2="111.11111111111111" y2="777.7777777777778"/>
<line x1="0.0" y1="888.8888888888889" x2="111.11111111111111" y2="888.8888888888889"/>
<line x1="0.0" y1="1000.0" x2="111.11111111111111" y2="1000.0"/>
<line x1="222.22222222222223" y1="0.0" x2="222.22222222222223" y2="111.11111111111111"/>
<line x1="111.11111111111111" y1="222.22222222222223" x2="222.22222222222223" y2="222.22222222222223"/>
<line x1="222.22222222222223" y1="333.33333333333337" x2="222.22222222222223" y2="444.44444444444446"/>
<line x1="111.11111111111111" y1="555.5555555555555" x2="222.22222222222223" y2="555.5555555555555"/>
<line x1="222.22222222222223" y1="444.44444444444446" x2="222.22222222222223" y2="555.5555555555555"/>
<line x1="222.22222222222223" y1="555.5555555555555" x2="222.22222222222223" y2="666.6666666666667"/>
<line x1="111.11111111111111" y1="777.7777777777778" x2="222.22222222222223" y2="777.7777777777778"/>
<line x1="222.22222222222223" y1="777.7777777777778" x2="222.22222222222223" y2="888.8888888888889"/>
<line x1="111.11111111111111" y1="1000.0" x2="222.22222222222223" y2="1000.0"/>
<line x1="222.22222222222223" y1="222.22222222222223" x2="333.33333333333337" y2="222.22222222222223"/>
<line x1="333.33333333333337" y1="111.11111111111111" x2="333.33333333333337" y2="222.22222222222223"/>
<line x1="333.33333333333337" y1="222.22222222222223" x2="333.33333333333337" y2="333.33333333333337"/>
<line x1="222.22222222222223" y1="444.44444444444446" x2="333.33333333333337" y2="444.44444444444446"/>
<line x1="333.33333333333337" y1="444.44444444444446" x2="333.33333333333337" y2="555.5555555555555"/>
<line x1="222.22222222222223" y1="666.6666666666667" x2="333.33333333333337" y2="666.6666666666667"/>
<line x1="222.22222222222223" y1="777.7777777777778" x2="333.33333333333337" y2="777.7777777777778"/>
<line x1="222.22222222222223" y1="888.8888888888889" x2="333.33333333333337" y2="888.8888888888889"/>
<line x1="222.22222222222223" y1="1000.0" x2="333.33333333333337" y2="1000.0"/>
<line x1="333.33333333333337" y1="333.33333333333337" x2="444.44444444444446" y2="333.33333333333337"/>
<line x1="444.44444444444446" y1="333.33333333333337" x2="444.44444444444446" y2="444.44444444444446"/>
<line x1="444.44444444444446" y1="444.44444444444446" x2="444.44444444444446" y2="555.5555555555555"/>
<line x1="333.33333333333337" y1="666.6666666666667" x2="444.44444444444446" y2="666.6666666666667"/>
<line x1="333.33333333333337" y1="777.7777777777778" x2="444.44444444444446" y2="777.7777777777778"/>
<line x1="444.44444444444446" y1="777.7777777777778" x2="444.44444444444446" y2="888.8888888888889"/>
<line x1="333.33333333333337" y1="1000.0" x2="444.44444444444446" y2="1000.0"/>
<line x1="444.44444444444446" y1="888.8888888888889" x2="444.44444444444446" y2="1000.0"/>
<line x1="444.44444444444446" y1="111.11111111111111" x2="555.5555555555555" y2="111.11111111111111"/>
<line x1="444.44444444444446" y1="222.22222222222223" x2="555.5555555555555" y2="222.22222222222223"/>
<line x1="555.5555555555555" y1="222.22222222222223" x2="555.5555555555555" y2="333.33333333333337"/>
<line x1="444.44444444444446" y1="555.5555555555555" x2="555.5555555555555" y2="555.5555555555555"/>
<line x1="555.5555555555555" y1="444.44444444444446" x2="555.5555555555555" y2="555.5555555555555"/>
<line x1="444.44444444444446" y1="666.6666666666667" x2="555.5555555555555" y2="666.6666666666667"/>
<line x1="444.44444444444446" y1="777.7777777777778" x2="555.5555555555555" y2="777.7777777777778"/>
<line x1="444.44444444444446" y1="1000.0" x2="555.5555555555555" y2="1000.0"/>
<line x1="555.5555555555555" y1="111.11111111111111" x2="666.6666666666667" y2="111.11111111111111"/>
<line x1="666.6666666666667" y1="111.11111111111111" x2="666.6666666666667" y2="222.22222222222223"/>
<line x1="555.5555555555555" y1="333.33333333333337" x2="666.6666666666667" y2="333.33333333333337"/>
<line x1="555.5555555555555" y1="444.44444444444446" x2="666.6666666666667" y2="444.44444444444446"/>
<line x1="555.5555555555555" y1="666.6666666666667" x2="666.6666666666667" y2="666.6666666666667"/>
<line x1="666.6666666666667" y1="555.5555555555555" x2="666.6666666666667" y2="666.6666666666667"/>
<line x1="666.6666666666667" y1="666.6666666666667" x2="666.6666666666667" y2="777.7777777777778"/>
<line x1="555.5555555555555" y1="888.8888888888889" x2="666.6666666666667" y2="888.8888888888889"/>
<line x1="666.6666666666667" y1="777.7777777777778" x2="666.6666666666667" y2="888.8888888888889"/>
<line x1="555.5555555555555" y1="1000.0" x2="666.6666666666667" y2="1000.0"/>
<line x1="666.6666666666667" y1="111.11111111111111" x2="777.7777777777778" y2="111.11111111111111"/>
<line x1="777.7777777777778" y1="0.0" x2="777.7777777777778" y2="111.11111111111111"/>
<line x1="666.6666666666667" y1="333.33333333333337" x2="777.7777777777778" y2="333.33333333333337"/>
<line x1="777.7777777777778" y1="222.22222222222223" x2="777.7777777777778" y2="333.33333333333337"/>
<line x1="666.6666666666667" y1="444.44444444444446" x2="777.7777777777778" y2="444.44444444444446"/>
<line x1="777.7777777777778" y1="333.33333333333337" x2="777.7777777777778" y2="444.44444444444446"/>
<line x1="777.7777777777778" y1="555.5555555555555" x2="777.7777777777778" y2="666.6666666666667"/>
<line x1="777.7777777777778" y1="666.6666666666667" x2="777.7777777777778" y2="777.7777777777778"/>
<line x1="666.6666666666667" y1="888.8888888888889" x2="777.7777777777778" y2="888.8888888888889"/>
<line x1="777.7777777777778" y1="777.7777777777778" x2="777.7777777777778" y2="888.8888888888889"/>
<line x1="666.6666666666667" y1="1000.0" x2="777.7777777777778" y2="1000.0"/>
<line x1="777.7777777777778" y1="222.22222222222223" x2="888.8888888888889" y2="222.22222222222223"/>
<line x1="888.8888888888889" y1="111.11111111111111" x2="888.8888888888889" y2="222.22222222222223"/>
<line x1="888.8888888888889" y1="333.33333333333337" x2="888.8888888888889" y2="444.44444444444446"/>
<line x1="777.7777777777778" y1="555.5555555555555" x2="888.8888888888889" y2="555.5555555555555"/>
<line x1="888.8888888888889" y1="444.44444444444446" x2="888.8888888888889" y2="555.5555555555555"/>
<line x1="888.8888888888889" y1="555.5555555555555" x2="888.8888888888889" y2="666.6666666666667"/>
<line x1="888.8888888888889" y1="666.6666666666667" x2="888.8888888888889" y2="777.7777777777778"/>
<line x1="888.8888888888889" y1="777.7777777777778" x2="888.8888888888889" y2="888.8888888888889"/>
<line x1="777.7777777777778" y1="1000.0" x2="888.8888888888889" y2="1000.0"/>
<line x1="888.8888888888889" y1="888.8888888888889" x2="888.8888888888889" y2="1000.0"/>
<line x1="1000.0" y1="0.0" x2="1000.0" y2="111.11111111111111"/>
<line x1="1000.0" y1="111.11111111111111" x2="1000.0" y2="222.22222222222223"/>
<line x1="1000.0" y1="222.22222222222223" x2="1000.0" y2="333.33333333333337"/>
<line x1="1000.0" y1="333.33333333333337" x2="1000.0" y2="444.44444444444446"/>
<line x1="1000.0" y1="444.44444444444446" x2="1000.0" y2="555.5555555555555"/>
<line x1="1000.0" y1="555.5555555555555" x2="1000.0" y2="666.6666666666667"/>
<line x1="1000.0" y1="666.6666666666667" x2="1000.0" y2="777.7777777777778"/>
<line x1="1000.0" y1="777.7777777777778" x2="1000.0" y2="888.8888888888889"/>
<line x1="888.8888888888889" y1="1000.0" x2="1000.0" y2="1000.0"/>
<line x1="1000.0" y1="888.8888888888889" x2="1000.0" y2="1000.0"/>

<line x1="0" y1="0" x2="1000" y2="0"/>
<line x1="0" y1="0" x2="0" y2="1000"/>
</svg>
