<?xml version="1.0" encoding="utf-8"?>
<svg xmlns="http://www.w3.org/2000/svg"
    xmlns:xlink="http://www.w3.org/1999/xlink"
    width="1020" height="1020" viewBox="-10 -10 1020 1020">
<defs>
<style type="text/css"><![CDATA[
line {
    stroke: #000000;
    stroke-linecap: square;
    stroke-width: 4;
}
]]>
.small { font: bold 25.0px sans-serif;
         fill: lightgray; }}
</style>

</defs>
<rect x="0.0" y="0.0" width="125.0" height="125.0" fill="none" stroke="gray" stroke-width="1"/>
<rect x="0.0" y="125.0" width="125.0" height="125.0" fill="none" stroke="gray" stroke-width="1"/>
<rect x="0.0" y="250.0" width="125.0" height="125.0" fill="none" stroke="gray" stroke-width="1"/>
<rect x="0.0" y="375.0" width="125.0" height="125.0" fill="none" stroke="gray" stroke-width="1"/>
<rect x="0.0" y="500.0" width="125.0" height="125.0" fill="none" stroke="gray" stroke-width="1"/>
<rect x="0.0" y="625.0" width="125.0" height="125.0" fill="none" stroke="gray" stroke-width="1"/>
<rect x="0.0" y="750.0" width="125.0" height="125.0" fill="none" stroke="gray" stroke-width="1"/>
<rect x="0.0" y="875.0" width="125.0" height="125.0" fill="none" stroke="gray" stroke-width="1"/>
<rect x="125.0" y="0.0" width="125.0" height="125.0" fill="none" stroke="gray" stroke-width="1"/>
<rect x="125.0" y="125.0" width="125.0" height="125.0" fill="none" stroke="gray" stroke-width="1"/>
<rect x="125.0" y="250.0" width="125.0" height="125.0" fill="none" stroke="gray" stroke-width="1"/>
<rect x="125.0" y="375.0" width="125.0" height="125.0" fill="none" stroke="gray" stroke-width="1"/>
<rect x="125.0" y="500.0" width="125.0" height="125.0" fill="none" stroke="gray" stroke-width="1"/>
<rect x="125.0" y="625.0" width="125.0" height="125.0" fill="none" stroke="gray" stroke-width="1"/>
<rect x="125.0" y="750.0" width="125.0" height="125.0" fill="none" stroke="gray" stroke-width="1"/>
<rect x="125.0" y="875.0" width="125.0" height="125.0" fill="none" stroke="gray" stroke-width="1"/>
<rect x="250.0" y="0.0" width="125.0" height="125.0" fill="none" stroke="gray" stroke-width="1"/>
<rect x="250.0" y="125.0" width="125.0" height="125.0" fill="none" stroke="gray" stroke-width="1"/>
<rect x="250.0" y="250.0" width="125.0" height="125.0" fill="none" stroke="gray" stroke-width="1"/>
<rect x="250.0" y="375.0" width="125.0" height="125.0" fill="none" stroke="gray" stroke-width="1"/>
<rect x="250.0" y="500.0" width="125.0" height="125.0" fill="none" stroke="gray" stroke-width="1"/>
<rect x="250.0" y="625.0" width="125.0" height="125.0" fill="none" stroke="gray" stroke-width="1"/>
<rect x="250.0" y="750.0" width="125.0" height="125.0" fill="none" stroke="gray" stroke-width="1"/>
<rect x="250.0" y="875.0" width="125.0" height="125.0" fill="none" stroke="gray" stroke-width="1"/>
<rect x="375.0" y="0.0" width="125.0" height="125.0" fill="none" stroke="gray" stroke-width="1"/>
<rect x="375.0" y="125.0" width="125.0" height="125.0" fill="none" stroke="gray" stroke-width="1"/>
<rect x="375.0" y="250.0" width="125.0" height="125.0" fill="none" stroke="gray" stroke-width="1"/>
<rect x="375.0" y="375.0" width="125.0" height="125.0" fill="none" stroke="gray" stroke-width="1"/>
<rect x="375.0" y="500.0" width="125.0" height="125.0" fill="none" stroke="gray" stroke-width="1"/>
<rect x="375.0" y="625.0" width="125.0" height="125.0" fill="none" stroke="gray" stroke-width="1"/>
<rect x="375.0" y="750.0" width="125.0" height="125.0" fill="none" stroke="gray" stroke-width="1"/>
<rect x="375.0" y="875.0" width="125.0" height="125.0" fill="none" stroke="gray" stroke-width="1"/>
<rect x="500.0" y="0.0" width="125.0" height="125.0" fill="none" stroke="gray" stroke-width="1"/>
<rect x="500.0" y="125.0" width="125.0" height="125.0" fill="none" stroke="gray" stroke-width="1"/>
<rect x="500.0" y="250.0" width="125.0" height="125.0" fill="none" stroke="gray" stroke-width="1"/>
<rect x="500.0" y="375.0" width="125.0" height="125.0" fill="none" stroke="gray" stroke-width="1"/>
<rect x="500.0" y="500.0" width="125.0" height="125.0" fill="none" stroke="gray" stroke-width="1"/>
<rect x="500.0" y="625.0" width="125.0" height="125.0" fill="none" stroke="gray" stroke-width="1"/>
<rect x="500.0" y="750.0" width="125.0" height="125.0" fill="none" stroke="gray" stroke-width="1"/>
<rect x="500.0" y="875.0" width="125.0" height="125.0" fill="none" stroke="gray" stroke-width="1"/>
<rect x="625.0" y="0.0" width="125.0" height="125.0" fill="none" stroke="gray" stroke-width="1"/>
<rect x="625.0" y="125.0" width="125.0" height="125.0" fill="none" stroke="gray" stroke-width="1"/>
<rect x="625.0" y="250.0" width="125.0" height="125.0" fill="none" stroke="gray" stroke-width="1"/>
<rect x="625.0" y="375.0" width="125.0" height="125.0" fill="none" stroke="gray" stroke-width="1"/>
<rect x="625.0" y="500.0" width="125.0" height="125.0" fill="none" stroke="gray" stroke-width="1"/>
<rect x="625.0" y="625.0" width="125.0" height="125.0" fill="none" stroke="gray" stroke-width="1"/>
<rect x="625.0" y="750.0" width="125.0" height="125.0" fill="none" stroke="gray" stroke-width="1"/>
<rect x="625.0" y="875.0" width="125.0" height="125.0" fill="none" stroke="gray" stroke-width="1"/>
<rect x="750.0" y="0.0" width="125.0" height="125.0" fill="none" stroke="gray" stroke-width="1"/>
<rect x="750.0" y="125.0" width="125.0" height="125.0" fill="none" stroke="gray" stroke-width="1"/>
<rect x="750.0" y="250.0" width="125.0" height="125.0" fill="none" stroke="gray" stroke-width="1"/>
<rect x="750.0" y="375.0" width="125.0" height="125.0" fill="none" stroke="gray" stroke-width="1"/>
<rect x="750.0" y="500.0" width="125.0" height="125.0" fill="none" stroke="gray" stroke-width="1"/>
<rect x="750.0" y="625.0" width="125.0" height="125.0" fill="none" stroke="gray" stroke-width="1"/>
<rect x="750.0" y="750.0" width="125.0" height="125.0" fill="none" stroke="gray" stroke-width="1"/>
<rect x="750.0" y="875.0" width="125.0" height="125.0" fill="none" stroke="gray" stroke-width="1"/>
<rect x="875.0" y="0.0" width="125.0" height="125.0" fill="none" stroke="gray" stroke-width="1"/>
<rect x="875.0" y="125.0" width="125.0" height="125.0" fill="none" stroke="gray" stroke-width="1"/>
<rect x="875.0" y="250.0" width="125.0" height="125.0" fill="none" stroke="gray" stroke-width="1"/>
<rect x="875.0" y="375.0" width="125.0" height="125.0" fill="none" stroke="gray" stroke-width="1"/>
<rect x="875.0" y="500.0" width="125.0" height="125.0" fill="none" stroke="gray" stroke-width="1"/>
<rect x="875.0" y="625.0" width="125.0" height="125.0" fill="none" stroke="gray" stroke-width="1"/>
<rect x="875.0" y="750.0" width="125.0" height="125.0" fill="none" stroke="gray" stroke-width="1"/>
<rect x="875.0" y="875.0" width="125.0" height="125.0" fill="none" stroke="gray" stroke-width="1"/>

<text x="12.5" y="37.5" class="small">(0,0)</text>
<text x="12.5" y="162.5" class="small">(0,1)</text>
<text x="12.5" y="287.5" class="small">(0,2)</text>
<text x="12.5" y="412.5" class="small">(0,3)</text>
<text x="12.5" y="537.5" class="small">(0,4)</text>
<text x="12.5" y="662.5" class="small">(0,5)</text>
<text x="12.5" y="787.5" class="small">(0,6)</text>
<text x="12.5" y="912.5" class="small">(0,7)</text>
<text x="137.5" y="37.5" class="small">(1,0)</text>
<text x="137.5" y="162.5" class="small">(1,1)</text>
<text x="137.5" y="287.5" class="small">(1,2)</text>
<text x="137.5" y="412.5" class="small">(1,3)</text>
<text x="137.5" y="537.5" class="small">(1,4)</text>
<text x="137.5" y="662.5" class="small">(1,5)</text>
<text x="137.5" y="787.5" class="small">(1,6)</text>
<text x="137.5" y="912.5" class="small">(1,7)</text>
<text x="262.5" y="37.5" class="small">(2,0)</text>
<text x="262.5" y="162.5" class="small">(2,1)</text>
<text x="262.5" y="287.5" class="small">(2,2)</text>
<text x="262.5" y="412.5" class="small">(2,3)</text>
<text x="262.5" y="537.5" class="small">(2,4)</text>
<text x="262.5" y="662.5" class="small">(2,5)</text>
<text x="262.5" y="787.5" class="small">(2,6)</text>
<text x="262.5" y="912.5" class="small">(2,7)</text>
<text x="387.5" y="37.5" class="small">(3,0)</text>
<text x="387.5" y="162.5" class="small">(3,1)</text>
<text x="387.5" y="287.5" class="small">(3,2)</text>
<text x="387.5" y="412.5" class="small">(3,3)</text>
<text x="387.5" y="537.5" class="small">(3,4)</text>
<text x="387.5" y="662.5" class="small">(3,5)</text>
<text x="387.5" y="787.5" class="small">(3,6)</text>
<text x="387.5" y="912.5" class="small">(3,7)</text>
<text x="512.5" y="37.5" class="small">(4,0)</text>
<text x="512.5" y="162.5" class="small">(4,1)</text>
<text x="512.5" y="287.5" class="small">(4,2)</text>
<text x="512.5" y="412.5" class="small">(4,3)</text>
<text x="512.5" y="537.5" class="small">(4,4)</text>
<text x="512.5" y="662.5" class="small">(4,5)</text>
<text x="512.5" y="787.5" class="small">(4,6)</text>
<text x="512.5" y="912.5" class="small">(4,7)</text>
<text x="637.5" y="37.5" class="small">(5,0)</text>
<text x="637.5" y="162.5" class="small">(5,1)</text>
<text x="637.5" y="287.5" class="small">(5,2)</text>
<text x="637.5" y="412.5" class="small">(5,3)</text>
<text x="637.5" y="537.5" class="small">(5,4)</text>
<text x="637.5" y="662.5" class="small">(5,5)</text>
<text x="637.5" y="787.5" class="small">(5,6)</text>
<text x="637.5" y="912.5" class="small">(5,7)</text>
<text x="762.5" y="37.5" class="small">(6,0)</text>
<text x="762.5" y="162.5" class="small">(6,1)</text>
<text x="762.5" y="287.5" class="small">(6,2)</text>
<text x="762.5" y="412.5" class="small">(6,3)</text>
<text x="762.5" y="537.5" class="small">(6,4)</text>
<text x="762.5" y="662.5" class="small">(6,5)</text>
<text x="762.5" y="787.5" class="small">(6,6)</text>
<text x="762.5" y="912.5" class="small">(6,7)</text>
<text x="887.5" y="37.5" class="small">(7,0)</text>
<text x="887.5" y="162.5" class="small">(7,1)</text>
<text x="887.5" y="287.5" class="small">(7,2)</text>
<text x="887.5" y="412.5" class="small">(7,3)</text>
<text x="887.5" y="537.5" class="small">(7,4)</text>
<text x="887.5" y="662.5" class="small">(7,5)</text>
<text x="887.5" y="787.5" class="small">(7,6)</text>
<text x="887.5" y="912.5" class="small">(7,7)</text>

<line x1="125.0" y1="250.0" x2="125.0" y2="375.0"/>
<line x1="125.0" y1="375.0" x2="125.0" y2="500.0"/>
<line x1="0.0" y1="625.0" x2="125.0" y2="625.0"/>
<line x1="125.0" y1="500.0" x2="125.0" y2="625.0"/>
<line x1="125.0" y1="750.0" x2="125.0" y2="875.0"/>
<line x1="0.0" y1="1000.0" x2="125.0" y2="1000.0"/>
<line x1="125.0" y1="125.0" x2="250.0" y2="125.0"/>
<line x1="125.0" y1="250.0" x2="250.0" y2="250.0"/>
<line x1="250.0" y1="125.0" x2="250.0" y2="250.0"/>
<line x1="250.0" y1="375.0" x2="250.0" y2="500.0"/>
<line x1="250.0" y1="500.0" x2="250.0" y2="625.0"/>
<line x1="125.0" y1="750.0" x2="250.0" y2="750.0"/>
<line x1="250.0" y1="625.0" x2="250.0" y2="750.0"/>
<line x1="125.0" y1="1000.0" x2="250.0" y2="1000.0"/>
<line x1="250.0" y1="125.0" x2="375.0" y2="125.0"/>
<line x1="250.0" y1="375.0" x2="375.0" y2="375.0"/>
<line x1="375.0" y1="250.0" x2="375.0" y2="375.0"/>
<line x1="375.0" y1="375.0" x2="375.0" y2="500.0"/>
<line x1="250.0" y1="625.0" x2="375.0" y2="625.0"/>
<line x1="250.0" y1="875.0" x2="375.0" y2="875.0"/>
<line x1="375.0" y1="750.0" x2="375.0" y2="875.0"/>
<line x1="250.0" y1="1000.0" x2="375.0" y2="1000.0"/>
<line x1="375.0" y1="125.0" x2="500.0" y2="125.0"/>
<line x1="375.0" y1="250.0" x2="500.0" y2="250.0"/>
<line x1="500.0" y1="375.0" x2="500.0" y2="500.0"/>
<line x1="375.0" y1="625.0" x2="500.0" y2="625.0"/>
<line x1="500.0" y1="500.0" x2="500.0" y2="625.0"/>
<line x1="375.0" y1="750.0" x2="500.0" y2="750.0"/>
<line x1="500.0" y1="750.0" x2="500.0" y2="875.0"/>
<line x1="375.0" y1="1000.0" x2="500.0" y2="1000.0"/>
<line x1="500.0" y1="875.0" x2="500.0" y2="1000.0"/>
<line x1="500.0" y1="125.0" x2="625.0" y2="125.0"/>
<line x1="500.0" y1="250.0" x2="625.0" y2="250.0"/>
<line x1="500.0" y1="500.0" x2="625.0" y2="500.0"/>
<line x1="500.0" y1="750.0" x2="625.0" y2="750.0"/>
<line x1="625.0" y1="625.0" x2="625.0" y2="750.0"/>
<line x1="625.0" y1="750.0" x2="625.0" y2="875.0"/>
<line x1="500.0" y1="1000.0" x2="625.0" y2="1000.0"/>
<line x1="625.0" y1="250.0" x2="750.0" y2="250.0"/>
<line x1="750.0" y1="125.0" x2="750.0" y2="250.0"/>
<line x1="625.0" y1="375.0" x2="750.0" y2="375.0"/>
<line x1="750.0" y1="250.0" x2="750.0" y2="375.0"/>
<line x1="625.0" y1="500.0" x2="750.0" y2="500.0"/>
<line x1="625.0" y1="625.0" x2="750.0" y2="625.0"/>
<line x1="750.0" y1="750.0" x2="750.0" y2="875.0"/>
<line x1="625.0" y1="1000.0" x2="750.0" y2="1000.0"/>
<line x1="750.0" y1="875.0" x2="750.0" y2="1000.0"/>
<line x1="750.0" y1="125.0" x2="875.0" y2="125.0"/>
<line x1="750.0" y1="375.0" x2="875.0" y2="375.0"/>
<line x1="750.0" y1="500.0" x2="875.0" y2="500.0"/>
<line x1="875.0" y1="500.0" x2="875.0" y2="625.0"/>
<line x1="750.0" y1="750.0" x2="875.0" y2="750.0"/>
<line x1="875.0" y1="625.0" x2="875.0" y2="750.0"/>
<line x1="875.0" y1="750.0" x2="875.0" y2="875.0"/>
<line x1="750.0" y1="1000.0" x2="875.0" y2="1000.0"/>
<line x1="1000.0" y1="0.0" x2="1000.0" y2="125.0"/>
<line x1="875.0" y1="250.0" x2="1000.0" y2="250.0"/>
<line x1="1000.0" y1="125.0" x2="1000.0" y2="250.0"/>
<line x1="1000.0" y1="250.0" x2="1000.0" y2="375.0"/>
<line x1="1000.0" y1="375.0" x2="1000.0" y2="500.0"/>
<line x1="1000.0" y1="500.0" x2="1000.0" y2="625.0"/>
<line x1="1000.0" y1="625.0" x2="1000.0" y2="750.0"/>
<line x1="1000.0" y1="750.0" x2="1000.0" y2="875.0"/>
<line x1="875.0" y1="1000.0" x2="1000.0" y2="1000.0"/>
<line x1="1000.0" y1="875.0" x2="1000.0" y2="1000.0"/>

<line x1="0" y1="0" x2="1000" y2="0"/>
<line x1="0" y1="0" x2="0" y2="1000"/>
</svg>
