<?xml version="1.0" encoding="utf-8"?>
<svg xmlns="http://www.w3.org/2000/svg"
    xmlns:xlink="http://www.w3.org/1999/xlink"
    width="1020" height="1020" viewBox="-10 -10 1020 1020">
<defs>
<style type="text/css"><![CDATA[
line {
    stroke: #000000;
    stroke-linecap: square;
    stroke-width: 4;
}
]]>
.small { font: bold 25.0px sans-serif;
         fill: lightgray; }}
</style>

</defs>
<rect x="0.0" y="0.0" width="125.0" height="125.0" fill="none" stroke="gray" stroke-width="1"/>
<rect x="0.0" y="125.0" width="125.0" height="125.0" fill="none" stroke="gray" stroke-width="1"/>
<rect x="0.0" y="250.0" width="125.0" height="125.0" fill="none" stroke="gray" stroke-width="1"/>
<rect x="0.0" y="375.0" width="125.0" height="125.0" fill="none" stroke="gray" stroke-width="1"/>
<rect x="0.0" y="500.0" width="125.0" height="125.0" fill="none" stroke="gray" stroke-width="1"/>
<rect x="0.0" y="625.0" width="125.0" height="125.0" fill="none" stroke="gray" stroke-width="1"/>
<rect x="0.0" y="750.0" width="125.0" height="125.0" fill="none" stroke="gray" stroke-width="1"/>
<rect x="0.0" y="875.0" width="125.0" height="125.0" fill="none" stroke="gray" stroke-width="1"/>
<rect x="125.0" y="0.0" width="125.0" height="125.0" fill="none" stroke="gray" stroke-width="1"/>
<rect x="125.0" y="125.0" width="125.0" height="125.0" fill="none" stroke="gray" stroke-width="1"/>
<rect x="125.0" y="250.0" width="125.0" height="125.0" fill="none" stroke="gray" stroke-width="1"/>
<rect x="125.0" y="375.0" width="125.0" height="125.0" fill="none" stroke="gray" stroke-width="1"/>
<rect x="125.0" y="500.0" width="125.0" height="125.0" fill="none" stroke="gray" stroke-width="1"/>
<rect x="125.0" y="625.0" width="125.0" height="125.0" fill="none" stroke="gray" stroke-width="1"/>
<rect x="125.0" y="750.0" width="125.0" height="125.0" fill="none" stroke="gray" stroke-width="1"/>
<rect x="125.0" y="875.0" width="125.0" height="125.0" fill="none" stroke="gray" stroke-width="1"/>
<rect x="250.0" y="0.0" width="125.0" height="125.0" fill="none" stroke="gray" stroke-width="1"/>
<rect x="250.0" y="125.0" width="125.0" height="125.0" fill="none" stroke="gray" stroke-width="1"/>
<rect x="250.0" y="250.0" width="125.0" height="125.0" fill="none" stroke="gray" stroke-width="1"/>
<rect x="250.0" y="375.0" width="125.0" height="125.0" fill="none" stroke="gray" stroke-width="1"/>
<rect x="250.0" y="500.0" width="125.0" height="125.0" fill="none" stroke="gray" stroke-width="1"/>
<rect x="250.0" y="625.0" width="125.0" height="125.0" fill="none" stroke="gray" stroke-width="1"/>
<rect x="250.0" y="750.0" width="125.0" height="125.0" fill="none" stroke="gray" stroke-width="1"/>
<rect x="250.0" y="875.0" width="125.0" height="125.0" fill="none" stroke="gray" stroke-width="1"/>
<rect x="375.0" y="0.0" width="125.0" height="125.0" fill="none" stroke="gray" stroke-width="1"/>
<rect x="375.0" y="125.0" width="125.0" height="125.0" fill="none" stroke="gray" stroke-width="1"/>
<rect x="375.0" y="250.0" width="125.0" height="125.0" fill="none" stroke="gray" stroke-width="1"/>
<rect x="375.0" y="375.0" width="125.0" height="125.0" fill="none" stroke="gray" stroke-width="1"/>
<rect x="375.0" y="500.0" width="125.0" height="125.0" fill="none" stroke="gray" stroke-width="1"/>
<rect x="375.0" y="625.0" width="125.0" height="125.0" fill="none" stroke="gray" stroke-width="1"/>
<rect x="375.0" y="750.0" width="125.0" height="125.0" fill="none" stroke="gray" stroke-width="1"/>
<rect x="375.0" y="875.0" width="125.0" height="125.0" fill="none" stroke="gray" stroke-width="1"/>
<rect x="500.0" y="0.0" width="125.0" height="125.0" fill="none" stroke="gray" stroke-width="1"/>
<rect x="500.0" y="125.0" width="125.0" height="125.0" fill="none" stroke="gray" stroke-width="1"/>
<rect x="500.0" y="250.0" width="125.0" height="125.0" fill="none" stroke="gray" stroke-width="1"/>
<rect x="500.0" y="375.0" width="125.0" height="125.0" fill="none" stroke="gray" stroke-width="1"/>
<rect x="500.0" y="500.0" width="125.0" height="125.0" fill="none" stroke="gray" stroke-width="1"/>
<rect x="500.0" y="625.0" width="125.0" height="125.0" fill="none" stroke="gray" stroke-width="1"/>
<rect x="500.0" y="750.0" width="125.0" height="125.0" fill="none" stroke="gray" stroke-width="1"/>
<rect x="500.0" y="875.0" width="125.0" height="125.0" fill="none" stroke="gray" stroke-width="1"/>
<rect x="625.0" y="0.0" width="125.0" height="125.0" fill="none" stroke="gray" stroke-width="1"/>
<rect x="625.0" y="125.0" width="125.0" height="125.0" fill="none" stroke="gray" stroke-width="1"/>
<rect x="625.0" y="250.0" width="125.0" height="125.0" fill="none" stroke="gray" stroke-width="1"/>
<rect x="625.0" y="375.0" width="125.0" height="125.0" fill="none" stroke="gray" stroke-width="1"/>
<rect x="625.0" y="500.0" width="125.0" height="125.0" fill="none" stroke="gray" stroke-width="1"/>
<rect x="625.0" y="625.0" width="125.0" height="125.0" fill="none" stroke="gray" stroke-width="1"/>
<rect x="625.0" y="750.0" width="125.0" height="125.0" fill="none" stroke="gray" stroke-width="1"/>
<rect x="625.0" y="875.0" width="125.0" height="125.0" fill="none" stroke="gray" stroke-width="1"/>
<rect x="750.0" y="0.0" width="125.0" height="125.0" fill="none" stroke="gray" stroke-width="1"/>
<rect x="750.0" y="125.0" width="125.0" height="125.0" fill="none" stroke="gray" stroke-width="1"/>
<rect x="750.0" y="250.0" width="125.0" height="125.0" fill="none" stroke="gray" stroke-width="1"/>
<rect x="750.0" y="375.0" width="125.0" height="125.0" fill="none" stroke="gray" stroke-width="1"/>
<rect x="750.0" y="500.0" width="125.0" height="125.0" fill="none" stroke="gray" stroke-width="1"/>
<rect x="750.0" y="625.0" width="125.0" height="125.0" fill="none" stroke="gray" stroke-width="1"/>
<rect x="750.0" y="750.0" width="125.0" height="125.0" fill="none" stroke="gray" stroke-width="1"/>
<rect x="750.0" y="875.0" width="125.0" height="125.0" fill="none" stroke="gray" stroke-width="1"/>
<rect x="875.0" y="0.0" width="125.0" height="125.0" fill="none" stroke="gray" stroke-width="1"/>
<rect x="875.0" y="125.0" width="125.0" height="125.0" fill="none" stroke="gray" stroke-width="1"/>
<rect x="875.0" y="250.0" width="125.0" height="125.0" fill="none" stroke="gray" stroke-width="1"/>
<rect x="875.0" y="375.0" width="125.0" height="125.0" fill="none" stroke="gray" stroke-width="1"/>
<rect x="875.0" y="500.0" width="125.0" height="125.0" fill="none" stroke="gray" stroke-width="1"/>
<rect x="875.0" y="625.0" width="125.0" height="125.0" fill="none" stroke="gray" stroke-width="1"/>
<rect x="875.0" y="750.0" width="125.0" height="125.0" fill="none" stroke="gray" stroke-width="1"/>
<rect x="875.0" y="875.0" width="125.0" height="125.0" fill="none" stroke="gray" stroke-width="1"/>

<text x="12.5" y="37.5" class="small">S0</text>
<text x="12.5" y="162.5" class="small">S8</text>
<text x="12.5" y="287.5" class="small">S16</text>
<text x="12.5" y="412.5" class="small">S24</text>
<text x="12.5" y="537.5" class="small">S32</text>
<text x="12.5" y="662.5" class="small">S40</text>
<text x="12.5" y="787.5" class="small">S48</text>
<text x="12.5" y="912.5" class="small">S56</text>
<text x="137.5" y="37.5" class="small">S1</text>
<text x="137.5" y="162.5" class="small">S9</text>
<text x="137.5" y="287.5" class="small">S17</text>
<text x="137.5" y="412.5" class="small">S25</text>
<text x="137.5" y="537.5" class="small">S33</text>
<text x="137.5" y="662.5" class="small">S41</text>
<text x="137.5" y="787.5" class="small">S49</text>
<text x="137.5" y="912.5" class="small">S57</text>
<text x="262.5" y="37.5" class="small">S2</text>
<text x="262.5" y="162.5" class="small">S10</text>
<text x="262.5" y="287.5" class="small">S18</text>
<text x="262.5" y="412.5" class="small">S26</text>
<text x="262.5" y="537.5" class="small">S34</text>
<text x="262.5" y="662.5" class="small">S42</text>
<text x="262.5" y="787.5" class="small">S50</text>
<text x="262.5" y="912.5" class="small">S58</text>
<text x="387.5" y="37.5" class="small">S3</text>
<text x="387.5" y="162.5" class="small">S11</text>
<text x="387.5" y="287.5" class="small">S19</text>
<text x="387.5" y="412.5" class="small">S27</text>
<text x="387.5" y="537.5" class="small">S35</text>
<text x="387.5" y="662.5" class="small">S43</text>
<text x="387.5" y="787.5" class="small">S51</text>
<text x="387.5" y="912.5" class="small">S59</text>
<text x="512.5" y="37.5" class="small">S4</text>
<text x="512.5" y="162.5" class="small">S12</text>
<text x="512.5" y="287.5" class="small">S20</text>
<text x="512.5" y="412.5" class="small">S28</text>
<text x="512.5" y="537.5" class="small">S36</text>
<text x="512.5" y="662.5" class="small">S44</text>
<text x="512.5" y="787.5" class="small">S52</text>
<text x="512.5" y="912.5" class="small">S60</text>
<text x="637.5" y="37.5" class="small">S5</text>
<text x="637.5" y="162.5" class="small">S13</text>
<text x="637.5" y="287.5" class="small">S21</text>
<text x="637.5" y="412.5" class="small">S29</text>
<text x="637.5" y="537.5" class="small">S37</text>
<text x="637.5" y="662.5" class="small">S45</text>
<text x="637.5" y="787.5" class="small">S53</text>
<text x="637.5" y="912.5" class="small">S61</text>
<text x="762.5" y="37.5" class="small">S6</text>
<text x="762.5" y="162.5" class="small">S14</text>
<text x="762.5" y="287.5" class="small">S22</text>
<text x="762.5" y="412.5" class="small">S30</text>
<text x="762.5" y="537.5" class="small">S38</text>
<text x="762.5" y="662.5" class="small">S46</text>
<text x="762.5" y="787.5" class="small">S54</text>
<text x="762.5" y="912.5" class="small">S62</text>
<text x="887.5" y="37.5" class="small">S7</text>
<text x="887.5" y="162.5" class="small">S15</text>
<text x="887.5" y="287.5" class="small">S23</text>
<text x="887.5" y="412.5" class="small">S31</text>
<text x="887.5" y="537.5" class="small">S39</text>
<text x="887.5" y="662.5" class="small">S47</text>
<text x="887.5" y="787.5" class="small">S55</text>
<text x="887.5" y="912.5" class="small">S63</text>

<line x1="125.0" y1="250.0" x2="125.0" y2="375.0"/>
<line x1="125.0" y1="375.0" x2="125.0" y2="500.0"/>
<line x1="0.0" y1="625.0" x2="125.0" y2="625.0"/>
<line x1="125.0" y1="500.0" x2="125.0" y2="625.0"/>
<line x1="125.0" y1="750.0" x2="125.0" y2="875.0"/>
<line x1="0.0" y1="1000.0" x2="125.0" y2="1000.0"/>
<line x1="125.0" y1="125.0" x2="250.0" y2="125.0"/>
<line x1="125.0" y1="250.0" x2="250.0" y2="250.0"/>
<line x1="250.0" y1="125.0" x2="250.0" y2="250.0"/>
<line x1="250.0" y1="375.0" x2="250.0" y2="500.0"/>
<line x1="250.0" y1="500.0" x2="250.0" y2="625.0"/>
<line x1="125.0" y1="750.0" x2="250.0" y2="750.0"/>
<line x1="250.0" y1="625.0" x2="250.0" y2="750.0"/>
<line x1="125.0" y1="1000.0" x2="250.0" y2="1000.0"/>
<line x1="250.0" y1="125.0" x2="375.0" y2="125.0"/>
<line x1="250.0" y1="375.0" x2="375.0" y2="375.0"/>
<line x1="375.0" y1="250.0" x2="375.0" y2="375.0"/>
<line x1="375.0" y1="375.0" x2="375.0" y2="500.0"/>
<line x1="250.0" y1="625.0" x2="375.0" y2="625.0"/>
<line x1="250.0" y1="875.0" x2="375.0" y2="875.0"/>
<line x1="375.0" y1="750.0" x2="375.0" y2="875.0"/>
<line x1="250.0" y1="1000.0" x2="375.0" y2="1000.0"/>
<line x1="375.0" y1="125.0" x2="500.0" y2="125.0"/>
<line x1="375.0" y1="250.0" x2="500.0" y2="250.0"/>
<line x1="500.0" y1="375.0" x2="500.0" y2="500.0"/>
<line x1="375.0" y1="625.0" x2="500.0" y2="625.0"/>
<line x1="500.0" y1="500.0" x2="500.0" y2="625.0"/>
<line x1="375.0" y1="750.0" x2="500.0" y2="750.0"/>
<line x1="500.0" y1="750.0" x2="500.0" y2="875.0"/>
<line x1="375.0" y1="1000.0" x2="500.0" y2="1000.0"/>
<line x1="500.0" y1="875.0" x2="500.0" y2="1000.0"/>
<line x1="500.0" y1="125.0" x2="625.0" y2="125.0"/>
<line x1="500.0" y1="250.0" x2="625.0" y2="250.0"/>
<line x1="500.0" y1="500.0" x2="625.0" y2="500.0"/>
<line x1="500.0" y1="750.0" x2="625.0" y2="750.0"/>
<line x1="625.0" y1="625.0" x2="625.0" y2="750.0"/>
<line x1="625.0" y1="750.0" x2="625.0" y2="875.0"/>
<line x1="500.0" y1="1000.0" x2="625.0" y2="1000.0"/>
<line x1="625.0" y1="250.0" x2="750.0" y2="250.0"/>
<line x1="750.0" y1="125.0" x2="750.0" y2="250.0"/>
<line x1="625.0" y1="375.0" x2="750.0" y2="375.0"/>
<line x1="750.0" y1="250.0" x2="750.0" y2="375.0"/>
<line x1="625.0" y1="500.0" x2="750.0" y2="500.0"/>
<line x1="625.0" y1="625.0" x2="750.0" y2="625.0"/>
<line x1="750.0" y1="750.0" x2="750.0" y2="875.0"/>
<line x1="625.0" y1="1000.0" x2="750.0" y2="1000.0"/>
<line x1="750.0" y1="875.0" x2="750.0" y2="1000.0"/>
<line x1="750.0" y1="125.0" x2="875.0" y2="125.0"/>
<line x1="750.0" y1="375.0" x2="875.0" y2="375.0"/>
<line x1="750.0" y1="500.0" x2="875.0" y2="500.0"/>
<line x1="875.0" y1="500.0" x2="875.0" y2="625.0"/>
<line x1="750.0" y1="750.0" x2="875.0" y2="750.0"/>
<line x1="875.0" y1="625.0" x2="875.0" y2="750.0"/>
<line x1="875.0" y1="750.0" x2="875.0" y2="875.0"/>
<line x1="750.0" y1="1000.0" x2="875.0" y2="1000.0"/>
<line x1="1000.0" y1="0.0" x2="1000.0" y2="125.0"/>
<line x1="875.0" y1="250.0" x2="1000.0" y2="250.0"/>
<line x1="1000.0" y1="125.0" x2="1000.0" y2="250.0"/>
<line x1="1000.0" y1="250.0" x2="1000.0" y2="375.0"/>
<line x1="1000.0" y1="375.0" x2="1000.0" y2="500.0"/>
<line x1="1000.0" y1="500.0" x2="1000.0" y2="625.0"/>
<line x1="1000.0" y1="625.0" x2="1000.0" y2="750.0"/>
<line x1="1000.0" y1="750.0" x2="1000.0" y2="875.0"/>
<line x1="875.0" y1="1000.0" x2="1000.0" y2="1000.0"/>
<line x1="1000.0" y1="875.0" x2="1000.0" y2="1000.0"/>

<line x1="0" y1="0" x2="1000" y2="0"/>
<line x1="0" y1="0" x2="0" y2="1000"/>
</svg>
