<?xml version="1.0" encoding="utf-8"?>
<svg xmlns="http://www.w3.org/2000/svg"
    xmlns:xlink="http://www.w3.org/1999/xlink"
    width="1020" height="1020" viewBox="-10 -10 1020 1020">
<defs>
<style type="text/css"><![CDATA[
line {
    stroke: #000000;
    stroke-linecap: square;
    stroke-width: 4;
}
]]>
.small { font: bold 40.0px sans-serif;
         fill: lightgray; }}
</style>

</defs>
<rect x="0.0" y="0.0" width="200.0" height="200.0" fill="none" stroke="gray" stroke-width="1"/>
<rect x="0.0" y="200.0" width="200.0" height="200.0" fill="none" stroke="gray" stroke-width="1"/>
<rect x="0.0" y="400.0" width="200.0" height="200.0" fill="none" stroke="gray" stroke-width="1"/>
<rect x="0.0" y="600.0" width="200.0" height="200.0" fill="none" stroke="gray" stroke-width="1"/>
<rect x="0.0" y="800.0" width="200.0" height="200.0" fill="none" stroke="gray" stroke-width="1"/>
<rect x="200.0" y="0.0" width="200.0" height="200.0" fill="none" stroke="gray" stroke-width="1"/>
<rect x="200.0" y="200.0" width="200.0" height="200.0" fill="none" stroke="gray" stroke-width="1"/>
<rect x="200.0" y="400.0" width="200.0" height="200.0" fill="none" stroke="gray" stroke-width="1"/>
<rect x="200.0" y="600.0" width="200.0" height="200.0" fill="none" stroke="gray" stroke-width="1"/>
<rect x="200.0" y="800.0" width="200.0" height="200.0" fill="none" stroke="gray" stroke-width="1"/>
<rect x="400.0" y="0.0" width="200.0" height="200.0" fill="none" stroke="gray" stroke-width="1"/>
<rect x="400.0" y="200.0" width="200.0" height="200.0" fill="none" stroke="gray" stroke-width="1"/>
<rect x="400.0" y="400.0" width="200.0" height="200.0" fill="none" stroke="gray" stroke-width="1"/>
<rect x="400.0" y="600.0" width="200.0" height="200.0" fill="none" stroke="gray" stroke-width="1"/>
<rect x="400.0" y="800.0" width="200.0" height="200.0" fill="none" stroke="gray" stroke-width="1"/>
<rect x="600.0" y="0.0" width="200.0" height="200.0" fill="none" stroke="gray" stroke-width="1"/>
<rect x="600.0" y="200.0" width="200.0" height="200.0" fill="none" stroke="gray" stroke-width="1"/>
<rect x="600.0" y="400.0" width="200.0" height="200.0" fill="none" stroke="gray" stroke-width="1"/>
<rect x="600.0" y="600.0" width="200.0" height="200.0" fill="none" stroke="gray" stroke-width="1"/>
<rect x="600.0" y="800.0" width="200.0" height="200.0" fill="none" stroke="gray" stroke-width="1"/>
<rect x="800.0" y="0.0" width="200.0" height="200.0" fill="none" stroke="gray" stroke-width="1"/>
<rect x="800.0" y="200.0" width="200.0" height="200.0" fill="none" stroke="gray" stroke-width="1"/>
<rect x="800.0" y="400.0" width="200.0" height="200.0" fill="none" stroke="gray" stroke-width="1"/>
<rect x="800.0" y="600.0" width="200.0" height="200.0" fill="none" stroke="gray" stroke-width="1"/>
<rect x="800.0" y="800.0" width="200.0" height="200.0" fill="none" stroke="gray" stroke-width="1"/>

<text x="20.0" y="60.0" class="small">S0</text>
<text x="20.0" y="260.0" class="small">S5</text>
<text x="20.0" y="459.99999999999994" class="small">S10</text>
<text x="20.0" y="660.0" class="small">S15</text>
<text x="20.0" y="860.0" class="small">S20</text>
<text x="220.00000000000003" y="60.0" class="small">S1</text>
<text x="220.00000000000003" y="260.0" class="small">S6</text>
<text x="220.00000000000003" y="459.99999999999994" class="small">S11</text>
<text x="220.00000000000003" y="660.0" class="small">S16</text>
<text x="220.00000000000003" y="860.0" class="small">S21</text>
<text x="420.0" y="60.0" class="small">S2</text>
<text x="420.0" y="260.0" class="small">S7</text>
<text x="420.0" y="459.99999999999994" class="small">S12</text>
<text x="420.0" y="660.0" class="small">S17</text>
<text x="420.0" y="860.0" class="small">S22</text>
<text x="620.0" y="60.0" class="small">S3</text>
<text x="620.0" y="260.0" class="small">S8</text>
<text x="620.0" y="459.99999999999994" class="small">S13</text>
<text x="620.0" y="660.0" class="small">S18</text>
<text x="620.0" y="860.0" class="small">S23</text>
<text x="819.9999999999999" y="60.0" class="small">S4</text>
<text x="819.9999999999999" y="260.0" class="small">S9</text>
<text x="819.9999999999999" y="459.99999999999994" class="small">S14</text>
<text x="819.9999999999999" y="660.0" class="small">S19</text>
<text x="819.9999999999999" y="860.0" class="small">S24</text>

<line x1="0.0" y1="600.0" x2="200.0" y2="600.0"/>
<line x1="200.0" y1="400.0" x2="200.0" y2="600.0"/>
<line x1="0.0" y1="800.0" x2="200.0" y2="800.0"/>
<line x1="0.0" y1="1000.0" x2="200.0" y2="1000.0"/>
<line x1="200.0" y1="200.0" x2="400.0" y2="200.0"/>
<line x1="200.0" y1="400.0" x2="400.0" y2="400.0"/>
<line x1="200.0" y1="800.0" x2="400.0" y2="800.0"/>
<line x1="400.0" y1="600.0" x2="400.0" y2="800.0"/>
<line x1="200.0" y1="1000.0" x2="400.0" y2="1000.0"/>
<line x1="400.0" y1="200.0" x2="600.0" y2="200.0"/>
<line x1="400.0" y1="400.0" x2="600.0" y2="400.0"/>
<line x1="600.0" y1="400.0" x2="600.0" y2="600.0"/>
<line x1="400.0" y1="800.0" x2="600.0" y2="800.0"/>
<line x1="400.0" y1="1000.0" x2="600.0" y2="1000.0"/>
<line x1="600.0" y1="200.0" x2="800.0" y2="200.0"/>
<line x1="800.0" y1="200.0" x2="800.0" y2="400.0"/>
<line x1="600.0" y1="600.0" x2="800.0" y2="600.0"/>
<line x1="800.0" y1="400.0" x2="800.0" y2="600.0"/>
<line x1="600.0" y1="800.0" x2="800.0" y2="800.0"/>
<line x1="600.0" y1="1000.0" x2="800.0" y2="1000.0"/>
<line x1="1000.0" y1="0.0" x2="1000.0" y2="200.0"/>
<line x1="1000.0" y1="200.0" x2="1000.0" y2="400.0"/>
<line x1="1000.0" y1="400.0" x2="1000.0" y2="600.0"/>
<line x1="1000.0" y1="600.0" x2="1000.0" y2="800.0"/>
<line x1="800.0" y1="1000.0" x2="1000.0" y2="1000.0"/>
<line x1="1000.0" y1="800.0" x2="1000.0" y2="1000.0"/>

<line x1="0" y1="0" x2="1000" y2="0"/>
<line x1="0" y1="0" x2="0" y2="1000"/>
</svg>
